<?xml version="1.0" encoding="utf-8"?>
<!-- Generator: Adobe Illustrator 24.0.0, SVG Export Plug-In . SVG Version: 6.00 Build 0)  -->
<svg version="1.1" id="图层_1" xmlns="http://www.w3.org/2000/svg" xmlns:xlink="http://www.w3.org/1999/xlink" x="0px" y="0px"
	 viewBox="0 0 200.2 200" style="enable-background:new 0 0 200.2 200;" xml:space="preserve">
<style type="text/css">
	.st0{fill:#5560DE;}
</style>
<path class="st0" d="M168.7,52.7c0-14-11.4-25.4-25.4-25.4h-24.1c-2,0-3.6-1.6-3.6-3.6v-7.2c0-6.2-4.9-10.7-10.7-10.7H66.7
	c-7.8,0-14.3,6.5-14.3,14.3v3.6c0,2-1.6,3.6-3.6,3.6H21.2C9.4,28,0,37.4,0,49.1v23.1c0,2,1.6,3.6,3.6,3.6h161.5c2,0,3.6-1.6,3.6-3.6
	L168.7,52.7L168.7,52.7z M101.6,28H67.4c-2,0-3.6-1.6-3.6-3.6v-2c0-3.3,2.6-5.5,4.9-5.5H100c2.9,0,4.9,2.3,4.9,5.5v2
	C105.5,26,103.9,28,101.6,28z M73.6,93.1c0,6.2,4.9,10.7,10.7,10.7s10.7-4.9,10.7-10.7c0-1,0-2-0.3-2.9c-0.3-1.6-2-2.6-3.6-2.6H77.8
	c-1.6,0-2.9,1-3.6,2.6C73.9,91.1,73.6,92.1,73.6,93.1z M198.6,107.4c-2-4.9-21.2,29.3-36.1,15.6c-15-13.7,17.6-36.1,12.4-37.4
	c-10.7-2.6-22.5,1.3-30.6,10.1c-8.1,9.4-10.4,22.8-5.9,33.5c0.7,1.3,0.3,2.6-0.7,3.9l-37.8,41c-4.2,4.9-4.2,12.4,0.7,16.9
	c4.9,4.2,12.4,4.2,16.9-0.7l37.8-41.4c1-1,2.3-1.3,3.6-1c11.4,3.3,24.1,0,32.9-9.4C199.3,129.9,201.9,117.5,198.6,107.4L198.6,107.4
	z M111.4,184.9c-1.3,2-3.6,2-5.5,0l-0.3-0.3c-1.6-1.3-1.6-3.6,0-5.2l0.3-0.3c1.3-1.6,3.6-1.6,5.2,0l0.3,0.3
	C113,180.7,113,182.9,111.4,184.9L111.4,184.9z"/>
<path class="st0" d="M129.3,113.6c0-8.5,2.9-16,7.5-21.8c1.3-2,0-4.2-2.3-4.2h-26.4c-1.6,0-2.9,1.3-2.6,2.9v2.9
	c0,11.4-8.8,21.2-20.2,21.5c-12.4,0.7-22.5-9.8-22.5-21.8v-2.6c0-1.6-1-2.9-2.6-2.9H2.6C1,87.5,0,88.8,0,90.1v56.7
	c0,12.4,9.4,21.8,21.2,21.8h72.6c0.7,0,1.3-0.3,2-0.7l36.5-36.5c0.7-0.7,1-2,0.7-3.3C130.9,124,129.3,119.1,129.3,113.6L129.3,113.6
	z"/>
</svg>
