<?xml version="1.0" encoding="utf-8"?>
<!-- Generator: Adobe Illustrator 24.0.0, SVG Export Plug-In . SVG Version: 6.00 Build 0)  -->
<svg version="1.1" id="图层_1" xmlns="http://www.w3.org/2000/svg" xmlns:xlink="http://www.w3.org/1999/xlink" x="0px" y="0px"
	 viewBox="0 0 200.2 200" style="enable-background:new 0 0 200.2 200;" xml:space="preserve">
<style type="text/css">
	.st0{fill:#5560DE;}
</style>
<path class="st0" d="M137.3,148.3h14.4v14.4h-14.4V148.3z M85.5,1.8L98.1,0c5.7,0,9.7,8.6,13.6,9.7c3.9,0,6.8-1.1,10.8,0
	c9.7,1.8,8.6,15.4,9.7,20.1c1.1,6.8,1.1,14.4,0,22.3c-1.1,4.7,1.8,3.9,1.8,3.9c6.8,0,4.7,17.2,4.7,17.2c-1.1,4.7-4.7,7.9-9.7,9.7
	c-1.8,7.9-3.9,13.6-13.6,19.4v10.8l-1.8,1.1c-12.6,9.7-20.1,25.1-20.1,40.6c0,7.9,1.8,15.4,4.7,22.3H11.2v-1.8
	c0-3.9,1.1-13.6,3.9-20.1c1.1-2.9,5.7-19.4,32.7-23.3c12.6-1.8,23.3-6.8,24.1-14.4v-14.7c-6.8-3.9-11.5-11.5-14.4-19.4
	c-5.7-1.8-7.9-4.7-8.6-9.7c0,0-2.9-18.3,2.9-18.3c0,0,2.9,0,1.8-4.7c-1.1-6.8-1.1-20.1,0-25.1c1.1-4.7,3.9-17.2,13.6-19.4
	C70.1,5,73,5,76.9,5c2.9-1.4,1.8-2.2,6.5-2.2L85.5,1.8L98.1,0L85.5,1.8z"/>
<path class="st0" d="M182.9,132.8c-8.3-14-23-22.3-39.1-21.9c-24.4,0.4-43.8,20.1-43.8,44.5s19.4,44.2,43.8,44.5
	c16.2,0.4,30.9-8.3,39.1-21.9C190.7,164.1,190.7,146.9,182.9,132.8L182.9,132.8z M171.4,169.5c0,0.7-0.7,1.4-1.4,1.4h-10.1v10.4
	c0,0.7-0.7,1.4-1.4,1.4h-8.3c-0.7,0-1.4-0.7-1.4-1.4v-10.4h-9.3v10.4c0,0.7-0.7,1.4-1.4,1.4h-8.3c-0.7,0-1.4-0.7-1.4-1.4v-10.4h-9.7
	c-0.7,0-1.4-0.7-1.4-1.4v-7.9c0-0.7,0.7-1.4,1.4-1.4h9.7v-10.1h-9.7c-0.7,0-1.4-0.7-1.4-1.4v-7.9c0-0.7,0.7-1.4,1.4-1.4h10.1v-9.7
	c0-0.7,0.7-1.4,1.4-1.4h7.9c0.7,0,1.4,0.7,1.4,1.4v9.7h9.7v-9.7c0-0.7,0.7-1.4,1.4-1.4h7.9c0.7,0,1.4,0.7,1.4,1.4v9.7h9.7
	c0.7,0,1.4,0.7,1.4,1.4v8.3c0,0.7-0.7,1.4-1.4,1.4h-9.7v9.7h10.1c0.7,0,1.4,0.7,1.4,1.4L171.4,169.5L171.4,169.5z"/>
</svg>
