<?xml version="1.0" encoding="utf-8"?>
<!-- Generator: Adobe Illustrator 24.0.0, SVG Export Plug-In . SVG Version: 6.00 Build 0)  -->
<svg version="1.1" id="图层_1" xmlns="http://www.w3.org/2000/svg" xmlns:xlink="http://www.w3.org/1999/xlink" x="0px" y="0px"
	 viewBox="0 0 200.2 200" style="enable-background:new 0 0 200.2 200;" xml:space="preserve">
<style type="text/css">
	.st0{fill:#FC950D;}
</style>
<path class="st0" d="M115.6,127.7c1.9,0,3.4-1.5,3.4-3.4s-1.5-3.4-3.4-3.4h-9.5l6.8-8.3c1.1-1.5,1-3.6-0.4-4.7
	c-1.5-1.2-3.6-1-4.7,0.4l-8.2,10l-8.3-9.5c-1.2-1.3-3.4-1.6-4.7-0.3c-1.3,1.2-1.6,3.4-0.3,4.7L93,121h-9.3c-1.9,0-3.4,1.5-3.4,3.4
	s1.5,3.4,3.4,3.4h12.7v7.6H83.6c-1.9,0-3.4,1.5-3.4,3.4s1.5,3.4,3.4,3.4h12.7v6.4c0,1.9,1.5,3.4,3.4,3.4s3.4-1.5,3.4-3.4v-6.4h12.7
	c1.9,0,3.4-1.5,3.4-3.4s-1.5-3.4-3.4-3.4h-12.7v-7.6L115.6,127.7L115.6,127.7z"/>
<path class="st0" d="M193.8,187.5h-16.5V98.4c2.2,1.3,4.8,2,7.5,2c4.8,0,9.2-2.2,12.1-6.1c5-6.6,3.7-16.2-3-21.2l-20.4-15.4V25.2
	c0-4.8-3.9-8.6-8.6-8.6h-11.6c-4.8,0-8.6,3.9-8.6,8.6v10.9L108.2,8.6c-5.4-4.2-13-4-18.4,0.1L43,44.7L7.9,71.6l-2,1.6
	c-6.6,5.2-7.9,14.7-2.8,21.3c2.5,3.3,6.1,5.3,10.1,5.8c3.1,0.4,6.4-0.2,9.2-1.7v89.1H6.6c-1.9,0-3.4,1.5-3.4,3.4s1.5,3.4,3.4,3.4
	h187.1c1.9,0,3.4-1.5,3.4-3.4C197.2,189.1,195.6,187.5,193.8,187.5L193.8,187.5z M134.8,149.5c0,7.6-6.2,13.9-13.9,13.9H79
	c-7.6,0-13.9-6.2-13.9-13.9v-41.8c0-7.6,6.2-13.9,13.9-13.9h41.8c7.6,0,13.9,6.2,13.9,13.9V149.5z"/>
</svg>
