<?xml version="1.0" encoding="utf-8"?>
<!-- Generator: Adobe Illustrator 24.0.0, SVG Export Plug-In . SVG Version: 6.00 Build 0)  -->
<svg version="1.1" id="图层_1" xmlns="http://www.w3.org/2000/svg" xmlns:xlink="http://www.w3.org/1999/xlink" x="0px" y="0px"
	 viewBox="0 0 200.2 200" style="enable-background:new 0 0 200.2 200;" xml:space="preserve">
<style type="text/css">
	.st0{fill:#FC950D;}
</style>
<path class="st0" d="M119.6,38.8h14.8v9.4h-14.8V38.8z M153.5,125.6c-20.1,0-36.5,16.7-36.5,37.2s16.3,37.2,36.5,37.2
	c20.1,0,36.5-16.7,36.5-37.2S173.7,125.6,153.5,125.6z M165.2,171.7h-8.5v9.9c0,1.8-1.4,3.2-3.1,3.2c-1.7,0-3.1-1.4-3.1-3.2v-9.9
	h-8.5c-1.7,0-3.1-1.4-3.1-3.2c0-1.8,1.4-3.2,3.1-3.2h8.5v-4.5h-8.5c-1.7,0-3.1-1.4-3.1-3.2c0-1.8,1.4-3.2,3.1-3.2h7.2l-8.1-8.3
	c-1.2-1.2-1.2-3.3,0-4.5c1.2-1.2,3.1-1.2,4.4-0.1c0,0,0,0,0.1,0.1l8.1,8.2l8.1-8.2c1.2-1.2,3.1-1.2,4.3-0.1c0,0,0,0,0.1,0.1
	c1.2,1.2,1.2,3.3,0,4.5l-8.1,8.3h7.3c1.7,0,3.1,1.4,3.1,3.2c0,1.8-1.4,3.2-3.1,3.2h-8.5v4.5h8.5c1.7,0,3.1,1.4,3.1,3.2
	C168.3,170.3,166.9,171.7,165.2,171.7L165.2,171.7z"/>
<path class="st0" d="M107.9,160.2c0-24.3,18.8-44,42-44c11.1,0,21.2,4.5,28.7,11.9V14c0-7.7-6-14-13.3-14h-142C16,0,10,6.3,10,14
	v167.4c0,7.7,6,14,13.3,14h101.4C114.6,187.3,107.9,174.6,107.9,160.2L107.9,160.2z M114,53.6V33.4h6c-1.4-3.5-2.9-6.6-4.5-9.4
	l4.8-2.3c1.7,2.9,3.3,6.2,4.9,9.9l-3.7,1.9h6.1c1.9-3.9,3.6-8,4.9-12.4l5.7,2.1c-1.4,3.8-2.9,7.2-4.5,10.3h6v20.2h-6v14.1
	c0,1.1,0.3,1.6,1.1,1.6h2c0.5,0,0.9-0.4,1.1-1.1c0.3-0.8,0.5-3.2,0.6-7l5.3,1.6c-0.4,5.8-1,9.3-2,10.4c-0.9,1.1-2.2,1.6-4,1.6h-4.7
	c-3.2,0-4.8-2-4.8-5.9V53.6h-3.6C124,63.9,120.5,71.3,114,76l-3.2-5.3c4.9-3.3,7.8-9,8.3-17L114,53.6L114,53.6z M63.2,21.4h6.1V30
	h15.2v5.8H69.3v7.3h14V49h-14v7.6h16.1v5.8H69.3v13.3h-6.1L63.2,21.4z M33.2,56.6h16.6V49h-14v-5.9h14v-7.3H34.5V30h15.3v-8.7h6.1
	v54.3h-6.1V62.4H33.2L33.2,56.6z M37.3,100.6H92c3.8,0,6.8,3.1,6.8,7c0,3.9-3.1,7-6.8,7H37.3c-3.8,0-6.8-3.1-6.8-7
	C30.5,103.7,33.6,100.6,37.3,100.6z M96.6,151.8H37.3c-3.8,0-6.8-3.1-6.8-7c0-3.9,3.1-7,6.8-7h59.2c3.8,0,6.8,3.1,6.8,7
	C103.4,148.6,100.4,151.8,96.6,151.8z M105.3,75.2h-5.7V52.4c-1.8,4.5-4,8.5-6.6,12.3l-2.7-7.2c3.9-4.5,6.8-9.4,8.7-15h-7.1v-5.9
	h7.7V30c-2.2,0.3-4.4,0.6-6.7,0.8l-1.2-5.6c6.8-0.6,13-1.7,18.4-3.4l2.1,5.6c-2.2,0.6-4.5,1.2-6.9,1.6v7.5h6.5v5.9h-6.5v2.7
	c2.6,2.7,5.2,5.6,7.8,8.9l-3.4,5.2c-1.7-3-3.2-5.5-4.4-7.5L105.3,75.2L105.3,75.2z"/>
</svg>
