<?xml version="1.0" encoding="utf-8"?>
<!-- Generator: Adobe Illustrator 24.0.0, SVG Export Plug-In . SVG Version: 6.00 Build 0)  -->
<svg version="1.1" id="图层_1" xmlns="http://www.w3.org/2000/svg" xmlns:xlink="http://www.w3.org/1999/xlink" x="0px" y="0px"
	 viewBox="0 0 200.2 200" style="enable-background:new 0 0 200.2 200;" xml:space="preserve">
<style type="text/css">
	.st0{fill:#FC950D;}
</style>
<path class="st0" d="M185.7,0H14.3C10,0,7.1,2.9,7.1,7.1v185.7c0,4.3,2.9,7.1,7.1,7.1h171.4c4.3,0,7.1-2.9,7.1-7.1V7.1
	C192.9,2.9,190,0,185.7,0z M132.9,124.3l-35,53.6c-0.7,1.4-2.1,1.4-3.6,0.7c-1.4-0.7-1.4-2.1-1.4-2.9l5-29.3c0.7-2.9-1.4-5-4.3-5.7
	h-0.7L72.1,140c-2.7,0.1-4.9-2.1-5-4.8c0-0.1,0-0.2,0-0.2c0-0.7,0-1.4,0.7-2.1l27.9-45c0.7-1.4,2.1-1.4,3.6-0.7
	c0.7,0.7,1.4,1.4,1.4,2.1l-2.1,22.9c0,2.9,1.4,5,4.3,5h25.7c2.7-0.1,4.9,2.1,5,4.8c0,0.1,0,0.2,0,0.2
	C133.6,122.1,132.9,123.6,132.9,124.3L132.9,124.3z M171.4,64.3H28.6V28.6c0-4.3,2.9-7.1,7.1-7.1h128.6c4.3,0,7.1,2.9,7.1,7.1V64.3z
	"/>
</svg>
