<?xml version="1.0" encoding="utf-8"?>
<!-- Generator: Adobe Illustrator 24.0.0, SVG Export Plug-In . SVG Version: 6.00 Build 0)  -->
<svg version="1.1" id="图层_1" xmlns="http://www.w3.org/2000/svg" xmlns:xlink="http://www.w3.org/1999/xlink" x="0px" y="0px"
	 viewBox="0 0 200.2 200" style="enable-background:new 0 0 200.2 200;" xml:space="preserve">
<style type="text/css">
	.st0{fill:#FC950D;}
</style>
<path class="st0" d="M71.5,132.1H7.2c-4,0-7.2-3.2-7.2-7.2V39.4c0-4,3.2-7.2,7.2-7.2h64.2V132.1L71.5,132.1z M102.6,156.9H81.2
	c-3.5,0-6.4-2.9-6.4-6.4V13.8c0-3.5,2.9-6.4,6.4-6.4h21.4c3.5,0,6.4,2.9,6.4,6.4v136.7C109,154,106.2,156.9,102.6,156.9L102.6,156.9
	z M133.7,87.1c-2.2,4-7.2,5.4-11.1,3.3c-3.9-2.2-10-15.1-10-15.1s14.1-1.6,18,0.6C134.5,78.1,135.9,83.1,133.7,87.1z M151.7,128.7
	c-6.7,3.1-14.6,0.5-17.6-5.9c-3-6.4,1.6-28.5,1.6-28.5s19.9,10.7,22.8,17.1C161.5,117.8,158.4,125.5,151.7,128.7z M151.9,192.6
	c-11.9,0.7-22-7.2-22.7-17.6c-0.6-10.5,19.2-38.7,19.2-38.7s23.2,25.6,23.8,36.1C172.9,182.8,163.8,191.9,151.9,192.6L151.9,192.6z
	 M127.7,49.2c-2,2.9-6,3.6-8.8,1.6c-2.8-2-6.5-12.3-6.5-12.3s10.9-0.1,13.8,1.9C129.1,42.4,129.7,46.3,127.7,49.2L127.7,49.2z
	 M163.3,66.3c-3.3,4.6-9.4,5.9-13.8,2.8s-9.7-19.4-9.7-19.4s17.1-0.4,21.5,2.6C165.7,55.5,166.6,61.7,163.3,66.3z M191.1,104.2
	c-7,2.9-14.8,0.2-17.3-6c-2.5-6.2,3.6-27.3,3.6-27.3s19.2,10.7,21.8,16.9C201.7,94,198.1,101.3,191.1,104.2z"/>
</svg>
