<?xml version="1.0" encoding="utf-8"?>
<!-- Generator: Adobe Illustrator 24.0.0, SVG Export Plug-In . SVG Version: 6.00 Build 0)  -->
<svg version="1.1" id="图层_1" xmlns="http://www.w3.org/2000/svg" xmlns:xlink="http://www.w3.org/1999/xlink" x="0px" y="0px"
	 viewBox="0 0 200.2 200" style="enable-background:new 0 0 200.2 200;" xml:space="preserve">
<style type="text/css">
	.st0{fill:#FC950D;}
</style>
<path class="st0" d="M190.6,46.9c0,0-28.1,1.3-28.1-25L100,0L37.5,21.9c0,0,0.9,25-28.1,25c0,0-4.1,60.9,18.7,96.9
	C60.7,195.3,100,200,100,200s44.1-9.7,71.9-56.2C194.4,106.3,190.6,46.9,190.6,46.9L190.6,46.9z M153.1,84.2l-19.8,20.9
	c-1,1.1-1.5,2.6-1.3,4.1l3.6,28.6c0.5,3.9-3.6,6.9-7.2,5.2l-26.1-12.3c-1.4-0.6-2.9-0.6-4.3,0L71.7,143c-3.6,1.7-7.6-1.3-7.1-5.2
	l3.6-28.6c0.2-1.5-0.3-3-1.3-4.1L47,84.2c-2.8-2.9-1.2-7.7,2.7-8.4L78,70.5c1.5-0.3,2.7-1.2,3.5-2.5l14.2-25.4
	c1.9-3.4,6.9-3.4,8.8,0l14.1,25.4c0.7,1.3,2,2.2,3.5,2.5l28.3,5.3C154.2,76.5,155.8,81.3,153.1,84.2L153.1,84.2z"/>
</svg>
