<?xml version="1.0" encoding="utf-8"?>
<!-- Generator: Adobe Illustrator 24.0.0, SVG Export Plug-In . SVG Version: 6.00 Build 0)  -->
<svg version="1.1" id="图层_1" xmlns="http://www.w3.org/2000/svg" xmlns:xlink="http://www.w3.org/1999/xlink" x="0px" y="0px"
	 viewBox="0 0 200.2 200" style="enable-background:new 0 0 200.2 200;" xml:space="preserve">
<style type="text/css">
	.st0{fill:#FC950D;}
</style>
<path class="st0" d="M185.6,46.5h-32.2c-1.4,0-2.6-1.1-2.6-2.6l0,0C150.8,22.4,133.9,5,113,5h-26C66,5,49.1,22.4,49.1,43.9l0,0
	c0,1.4-1.1,2.6-2.6,2.6H14.4C6.4,46.5,0,53.1,0,61.3v44.6c0,0.8,0.4,1.5,1,2l15.1,11.9c0.5,0.4,1,0.5,1.6,0.5h59.7
	c1.4,0,2.6-1.1,2.6-2.6v-6.6c0-1.4,1.1-2.6,2.6-2.6h35.4c1.4,0,2.6,1.1,2.6,2.6v6.6c0,1.4,1.1,2.6,2.6,2.6h58.7
	c0.6,0,1.1-0.2,1.6-0.5l16.6-13.1l0.2,0.3V61.3C200,53.1,193.6,46.5,185.6,46.5z M133.1,46.5H66.8v-0.8c0-14,11-25.3,24.7-25.3h17
	c13.6,0,24.7,11.3,24.7,25.3L133.1,46.5L133.1,46.5z M186.3,135.9h-63.4c-1.4,0-2.6,1.1-2.6,2.6v3.7c0,1.4-1.1,2.6-2.6,2.6H82.5
	c-1.4,0-2.6-1.1-2.6-2.6v-3.7c0-1.4-1.1-2.6-2.6-2.6H13l-0.5,0.6l-8.4-6.6c-1.7-1.3-4.1-0.1-4.1,2v48.2c0,8.2,6.4,14.8,14.4,14.8
	h171.2c7.9,0,14.4-6.6,14.4-14.8v-48.8c0-2.1-2.5-3.3-4.1-2l-9,7.1L186.3,135.9z"/>
</svg>
