<?xml version="1.0" encoding="utf-8"?>
<!-- Generator: Adobe Illustrator 24.0.0, SVG Export Plug-In . SVG Version: 6.00 Build 0)  -->
<svg version="1.1" id="图层_1" xmlns="http://www.w3.org/2000/svg" xmlns:xlink="http://www.w3.org/1999/xlink" x="0px" y="0px"
	 viewBox="0 0 200.2 200" style="enable-background:new 0 0 200.2 200;" xml:space="preserve">
<style type="text/css">
	.st0{fill:#FC950D;}
</style>
<path class="st0" d="M174.8,31.4L200,60.1c-1.3,17.5-15.7,31.4-33.6,31.4c-17.8,0-32.3-13.9-33.6-31.4l20.5-22.6h-27.5
	c-8.4,0-13.9,7.2-17.2,13.8v87.6h24.9c6.8,0,12.3,5.5,12.3,12.3v4.5h3c6.8,0,12.3,5.5,12.3,12.3v10.3H34.9V168
	c0-6.8,5.5-12.3,12.3-12.3h3.4v-4.5c0-6.8,5.5-12.3,12.3-12.3h24.6v-94c-3.3-4.1-7.5-7.4-13.2-7.4H46.7l20.5,22.6
	c-1.3,17.5-15.7,31.4-33.6,31.4C15.7,91.5,1.3,77.6,0,60.1l25.2-28.7c4.5-5.2,11.1-8.2,18-8.2h31.1c12.2,0,20.4,7,25.7,14.8
	c5.4-7.8,13.6-14.8,25.8-14.8h31C163.7,23.3,170.2,26.2,174.8,31.4L174.8,31.4z M20,60.1h27.6L33.8,44.4L20,60.1z M180,60.1
	l-13.8-15.7l-13.8,15.7H180z"/>
</svg>
