<?xml version="1.0" encoding="utf-8"?>
<!-- Generator: Adobe Illustrator 24.0.0, SVG Export Plug-In . SVG Version: 6.00 Build 0)  -->
<svg version="1.1" id="图层_1" xmlns="http://www.w3.org/2000/svg" xmlns:xlink="http://www.w3.org/1999/xlink" x="0px" y="0px"
	 viewBox="0 0 200.2 200" style="enable-background:new 0 0 200.2 200;" xml:space="preserve">
<style type="text/css">
	.st0{fill:#FC950D;}
</style>
<path class="st0" d="M97.1,3.4c2-0.9,4.4-0.9,6.3,0.2c30.9,18,61.7,36,92.6,54c1.7,1,3.1,2.7,3.7,4.6c0.8,2.6,0.3,5.6-1.4,7.7
	c-1.5,1.8-3.9,2.9-6.2,2.9c-4.2,0-8.4,0-12.6,0c0,32,0,64,0,95.9c1.6,0,3.3,0,5,0c2,0,4.1-0.1,6.1,0.4c4.3,1.1,7.9,4.8,8.9,9.1
	c0.5,2,0.3,4,0.4,6.1c0.1,3.1-1.1,6.2-3.2,8.6c-2.3,2.6-5.8,4.2-9.3,4.2c-58.1,0-116.3,0-174.4,0c-3.2,0-6.4-1.3-8.7-3.5
	c-2.5-2.3-3.9-5.7-3.9-9.1c0-2.1-0.2-4.2,0.4-6.2c0.8-3.4,3.1-6.4,6.2-8c1.8-1,3.9-1.5,6-1.5c2.5,0,5,0,7.6,0c0-32,0-64,0-95.9
	c-3.9,0-7.7,0-11.6,0c-2.8,0.2-5.7-1-7.3-3.4c-1.5-2.1-1.9-5-1.1-7.4c0.6-1.9,2-3.5,3.7-4.5L93.9,5.2C95,4.6,96,4,97.1,3.4
	 M98.8,45.6c-0.9,0.7-1.4,1.7-1.8,2.7c-2.6,5.3-5.3,10.6-7.9,15.9c-6.3,0.9-12.5,1.8-18.8,2.7c-1.7,0.2-3.3,1.5-3.9,3.1
	c-0.7,1.8-0.2,3.9,1.2,5.2c4.5,4.4,9,8.8,13.6,13.2c-1,5.8-2,11.6-3,17.4c-0.2,1-0.4,1.9-0.2,2.9c0.3,1.8,1.8,3.4,3.6,3.8
	c1.2,0.3,2.5,0.1,3.6-0.5c5.6-2.9,11.1-5.8,16.7-8.7c5.6,2.9,11.3,5.9,16.9,8.9c1.5,0.8,3.5,0.7,4.9-0.3c1.6-1,2.5-3.1,2.1-5
	c-1.1-6.2-2.1-12.4-3.2-18.5c4.5-4.4,9-8.7,13.5-13.1c1-0.9,1.6-2.3,1.6-3.7c0-1.8-1.2-3.5-2.8-4.3c-0.8-0.4-1.7-0.5-2.6-0.6
	c-5.8-0.8-11.7-1.7-17.5-2.5c-2.7-5.5-5.5-11.1-8.2-16.6c-0.4-1-1.1-1.9-2.1-2.4C102.6,44.2,100.3,44.4,98.8,45.6 M49.1,141.8
	c-1.8,0.4-3.2,2.1-3.3,3.9c-0.1,1.2-0.1,2.4,0.4,3.5c0.7,1.6,2.5,2.6,4.2,2.5c32.6,0,65.3,0,97.9,0c0.7,0,1.5,0,2.3-0.1
	c1.5-0.2,2.9-1.3,3.5-2.7c0.4-1,0.3-2,0.3-3.1c0-1.7-1.2-3.3-2.8-3.9c-1-0.4-2-0.3-3.1-0.3H51.7C50.8,141.7,49.9,141.6,49.1,141.8
	 M49.1,163.1c-1.8,0.4-3.2,2.1-3.3,3.9c-0.1,1.2-0.1,2.6,0.5,3.7c0.8,1.5,2.4,2.5,4.1,2.4c33.1,0,66.3,0,99.4,0
	c2.3,0.1,4.3-1.8,4.5-4.1c0-1.1,0.1-2.3-0.3-3.3c-0.7-1.7-2.5-2.9-4.4-2.8c-32.6,0-65.3,0-97.9,0C50.8,162.9,49.9,162.9,49.1,163.1
	L49.1,163.1z"/>
</svg>
