<?xml version="1.0" encoding="utf-8"?>
<!-- Generator: Adobe Illustrator 24.0.0, SVG Export Plug-In . SVG Version: 6.00 Build 0)  -->
<svg version="1.1" id="图层_1" xmlns="http://www.w3.org/2000/svg" xmlns:xlink="http://www.w3.org/1999/xlink" x="0px" y="0px"
	 viewBox="0 0 200 200" style="enable-background:new 0 0 200 200;" xml:space="preserve">
<style type="text/css">
	.st0{fill:#2970ED;}
</style>
<path class="st0" d="M100,16.7c11.3,0,22.2,2.2,32.4,6.5c9.9,4.2,18.8,10.2,26.5,17.9s13.7,16.6,17.9,26.5
	c4.3,10.3,6.5,21.2,6.5,32.4s-2.2,22.2-6.5,32.4c-4.2,9.9-10.2,18.8-17.9,26.5c-7.7,7.7-16.6,13.7-26.5,17.9
	c-10.3,4.3-21.2,6.5-32.4,6.5s-22.2-2.2-32.4-6.5c-9.9-4.2-18.8-10.2-26.5-17.9c-7.7-7.7-13.7-16.6-17.9-26.5
	c-4.3-10.3-6.5-21.2-6.5-32.4s2.2-22.2,6.5-32.4c4.2-9.9,10.2-18.8,17.9-26.5s16.6-13.7,26.5-17.9C77.8,18.9,88.7,16.7,100,16.7
	 M100,0C46.4,0,2.6,42.3,0.1,95.3c-2.8,59.9,44.7,107.4,104.6,104.6c53-2.5,95.3-46.2,95.3-99.9C200,44.8,155.2,0,100,0L100,0z"/>
<path class="st0" d="M102.9,72.4c-1.7-1.7-4.4-1.7-6.1,0l-42.6,42.8c-3.2,3.3-3.2,8.5,0,11.8c3.3,3.2,8.5,3.2,11.8,0l30.9-31
	c1.7-1.7,4.4-1.7,6.1,0l31,30.9c3.3,3.2,8.5,3.2,11.8,0c3.2-3.3,3.2-8.5,0-11.8L102.9,72.4z"/>
</svg>
