<?xml version="1.0" encoding="utf-8"?>
<!-- Generator: Adobe Illustrator 24.0.0, SVG Export Plug-In . SVG Version: 6.00 Build 0)  -->
<svg version="1.1" id="图层_1" xmlns="http://www.w3.org/2000/svg" xmlns:xlink="http://www.w3.org/1999/xlink" x="0px" y="0px"
	 viewBox="0 0 200.2 200" style="enable-background:new 0 0 200.2 200;" xml:space="preserve">
<style type="text/css">
	.st0{fill:#0BD2A9;}
</style>
<path class="st0" d="M199.8,161c0.7,4-0.2,7.6-2.5,10.9c-2.3,3.2-5.5,5.2-9.5,5.8l-24.1,3.8c-3.9,0.7-7.5-0.2-10.8-2.5
	c-3.3-2.3-5.3-5.5-5.9-9.5L126.4,39.6c-0.3-2-0.2-3.9,0.3-5.7c0.5-1.8,1.2-3.5,2.3-5c1.1-1.5,2.4-2.8,4.1-3.8c1.7-1,3.5-1.7,5.5-2.1
	l23.9-3.8c4-0.7,7.6,0.2,10.9,2.6c3.2,2.4,5.2,5.6,5.8,9.6L199.8,161z M98.7,18.3c4,0,7.4,1.4,10.3,4.2c2.8,2.8,4.2,6.2,4.2,10.2
	V167c0,4-1.4,7.4-4.2,10.2c-2.8,2.8-6.2,4.2-10.3,4.2H77.8c-4,0-7.4-1.4-10.2-4.2c-2.8-2.8-4.2-6.2-4.2-10.2V32.8
	c0-4,1.1-7.4,3.2-10.2c2.1-2.8,5.3-4.2,9.4-4.2L98.7,18.3z M98.7,119.6c1.3,0,2.5-0.6,3.4-1.9c0.9-1.3,1.4-2.8,1.4-4.5
	c0-1.9-0.5-3.4-1.4-4.6c-0.9-1.2-2.1-1.8-3.4-1.8H77.8c-1.3,0-2.5,0.6-3.4,1.8c-0.9,1.2-1.4,2.7-1.4,4.6c0,1.7,0.5,3.2,1.4,4.5
	c0.9,1.3,2.1,1.9,3.4,1.9H98.7z M98.7,94.1c1.3,0,2.5-0.6,3.4-1.9c0.9-1.3,1.4-2.8,1.4-4.7c0-1.9-0.5-3.4-1.4-4.6
	c-0.9-1.2-2.1-1.8-3.4-1.8H77.8c-1.3,0-2.5,0.6-3.4,1.8C73.4,84,73,85.6,73,87.4c0,1.9,0.5,3.4,1.4,4.7c0.9,1.3,2.1,1.9,3.4,1.9
	H98.7z M35.6,18.3c4,0,7.5,1.4,10.4,4.2c2.9,2.8,4.3,6.2,4.3,10.2V167c0,4-1.4,7.4-4.3,10.2c-2.9,2.8-6.3,4.2-10.4,4.2H14.7
	c-4,0-7.5-1.4-10.4-4.2C1.4,174.5,0,171,0,167L0,32.8c0-4,1.4-7.4,4.3-10.2c2.9-2.8,6.3-4.2,10.4-4.2L35.6,18.3z M15.5,68.5
	c-1.5,0-2.7,0.6-3.6,1.8c-0.9,1.2-1.4,2.7-1.4,4.6c0,1.7,0.5,3.2,1.4,4.5c0.9,1.3,2.1,1.9,3.6,1.9h19.3c1.5,0,2.6-0.6,3.5-1.9
	c0.9-1.3,1.3-2.8,1.3-4.5c0-1.9-0.4-3.4-1.3-4.6c-0.9-1.2-2-1.8-3.5-1.8H15.5z M35.6,131.6c1.5,0,2.6-0.6,3.5-1.8
	c0.9-1.2,1.3-2.7,1.3-4.4c0-1.9-0.4-3.4-1.3-4.5c-0.9-1.1-2-1.7-3.5-1.7H15.5c-1.5,0-2.7,0.6-3.6,1.7c-0.9,1.1-1.4,2.6-1.4,4.5
	c0,1.7,0.5,3.2,1.4,4.4c0.9,1.2,2.1,1.8,3.6,1.8H35.6z M35.6,106.9c1.5,0,2.6-0.6,3.5-1.8c0.9-1.2,1.3-2.7,1.3-4.6
	c0-1.9-0.4-3.4-1.3-4.6c-0.9-1.2-2-1.8-3.5-1.8H15.5c-1.5,0-2.7,0.6-3.6,1.8c-0.9,1.2-1.4,2.7-1.4,4.6c0,1.9,0.5,3.4,1.4,4.6
	c0.9,1.2,2.1,1.8,3.6,1.8H35.6z"/>
</svg>
