<?xml version="1.0" encoding="utf-8"?>
<!-- Generator: Adobe Illustrator 24.0.0, SVG Export Plug-In . SVG Version: 6.00 Build 0)  -->
<svg version="1.1" id="图层_1" xmlns="http://www.w3.org/2000/svg" xmlns:xlink="http://www.w3.org/1999/xlink" x="0px" y="0px"
	 viewBox="0 0 200.2 200" style="enable-background:new 0 0 200.2 200;" xml:space="preserve">
<style type="text/css">
	.st0{fill:#5560DE;}
	.st1{fill:#FFFFFF;}
</style>
<path class="st0" d="M63.8,7.1c0-3.9-3.2-7.1-7.1-7.1s-7.1,3.2-7.1,7.1v9.8h14.2L63.8,7.1z"/>
<path class="st0" d="M115.2,72.1c0-1.2-1-2.1-2.1-2.1s-2.1,1-2.1,2.1v3h4.3L115.2,72.1L115.2,72.1z"/>
<path class="st0" d="M180.1,22.5h-29.6v20.5c0,3.9-3.2,7.1-7.1,7.1c-3.9,0-7.1-3.2-7.1-7.1V22.5H63.8v20.5c0,3.9-3.2,7.1-7.1,7.1
	s-7.1-3.2-7.1-7.1V22.5H19.9C9,22.5,0,31.4,0,42.5v137.6C0,191,8.8,200,19.9,200h160.1c11,0,19.9-8.8,19.9-19.9V42.5
	C200,31.5,191,22.5,180.1,22.5z"/>
<g>
	<g>
		<path class="st1" d="M92.8,124l-0.1-0.1l-0.2-0.1c-0.6-0.2-1.2-0.5-1.8-0.9c-0.6-0.4-1.3-0.8-2.1-1.1c-1-0.6-2.3-0.8-3.5-0.5
			c-1.3,0.3-2.5,1-3.1,2c-1.4,2.1-0.7,5.4,1.4,6.8c1.5,1,3,2,5.1,3.1c0.8,0.7,1.7,0.7,2.2,0.7c2,0,3.4-1.3,4.4-2.4l0.3-0.3l0.1-0.4
			C95.9,128.1,94.9,125.4,92.8,124z"/>
		<path class="st1" d="M75.4,142.2c-3.7-3.7-8.6-5.7-13.9-5.7c-5.3,0-10.3,2-14.1,5.8c-3.9,3.8-6,8.9-6,14.3c0,5.3,2.1,10.2,6,14.1
			c3,3,9.1,9.6,9.1,9.6l0,0c1.2,1.2,3,1.9,5,1.9c1.8,0,3.1-0.6,4.4-1.9c0.3-0.3,7.2-7.2,9.7-10.3c3.5-4.1,5.4-9,5.4-14
			C81.1,150.8,79.1,145.9,75.4,142.2z M68.9,156.6c0,2.2-0.9,4.2-2.3,5.4c-0.3,0.1-0.6,0.3-0.8,0.4h-0.1l-0.3,0.2
			c-2.5,1.7-6.5,1.3-8.6-0.9c-1.8-1.8-2.7-3.5-2.7-5.2c0-4.4,3-7.4,7.4-7.4C65.2,149.2,68.9,152,68.9,156.6z"/>
		<path class="st1" d="M71.5,116.3c0.7,2,2.6,3.4,4.7,3.4c0.5,0,1.4,0,2.3-0.7c2.6-1.4,3.7-4.2,2.4-6.7c-0.2-0.4-0.9-1.9-0.9-3.5
			v-0.2l0-0.1c-0.7-2.8-3.5-4.6-6.1-4c-2.8,0.7-4.6,3.5-4,6.1C70.5,112.6,71,114.7,71.5,116.3z"/>
		<path class="st1" d="M110.3,93.6c0.8,0.4,1.8,1.4,2.7,2.3c0.7,0.7,2,1.4,3.4,1.4c1.4,0,2.7-0.6,3.9-1.9l0.1-0.1l0.1-0.2
			c0.7-1.4,0.7-4.6-1.3-6.5l0,0c-0.6-0.6-1.2-1.1-1.9-1.6c-0.6-0.5-1.2-1-1.7-1.4l-0.1-0.1l-0.1-0.1c-1.2-0.8-2.8-1.1-4.2-0.7
			c-1.2,0.3-2.1,1.1-2.7,2.1c-0.8,1.2-1,2.8-0.7,4.1C108.4,92.1,109.2,93,110.3,93.6z"/>
		<path class="st1" d="M74,99.1c0.8,0.7,1.7,0.7,2.8,0.7c2,0,3.4-0.8,4.6-2.6l0.1-0.1c0.5-1,0.9-1.9,1.8-2.7c2-2,2-5.3,0-7.4
			s-5.3-2-7.4,0l-0.1,0.1l-0.1,0.1c-0.5,0.7-1.1,1.4-1.7,2.2c-0.6,0.8-1.3,1.6-1.9,2.4l-0.1,0.1c-0.6,1.3-0.8,2.7-0.5,4
			C72,97.3,72.8,98.4,74,99.1z"/>
		<path class="st1" d="M90.4,168.1c-1.5-0.5-2.9-1-4.2-1.9l-0.1-0.1c-1.3-0.6-2.7-0.7-4-0.2c-1.2,0.5-2.1,1.5-2.8,2.8
			c-1.3,2.5-0.2,5.4,2.6,6.8l0.1,0l0.1,0c0.5,0.2,1.1,0.5,1.8,0.7c1,0.5,2.1,1,3.4,1.3l0.1,0H89c2.1,0,4.1-1.4,4.7-3.4
			c0.4-1.1,0.2-2.6-0.5-3.8C92.6,169.3,91.6,168.4,90.4,168.1z"/>
		<path class="st1" d="M103.5,84.8c0-2.6-1.9-5.3-4.8-5.3h-5.6c-2.9,0-4.8,2.8-4.8,5.3c0,2.7,2.6,4.8,4.8,4.8h5.1
			C100.7,89.6,103.5,87.7,103.5,84.8z"/>
		<path class="st1" d="M125.5,159c-2.6-0.7-5.2,0.6-6.5,3.2l-2,4c-0.6,1-0.8,2.3-0.6,3.6c0.3,1.3,0.9,2.4,1.9,3.1
			c0.9,0.8,2.2,0.8,2.8,0.8c1.2,0,3.3-0.6,4.1-2.1c1.1-1.6,1.6-3.2,2.1-4.7l0.4-0.9c0.9-1.6,1.1-3.2,0.6-4.5
			C127.9,160.2,126.8,159.3,125.5,159z"/>
		<path class="st1" d="M161.7,68.9l-30.5-10.7c-2.1-0.7-4-0.5-5.7,0.7l-0.1,0.1l-0.1,0.1c-0.7,0.7-2.4,2.7-2.4,5v45.8
			c0,3.7,2.6,6.3,6.3,6.3c3.7,0,6.3-2.6,6.3-6.3v-12l27.4-17.4c2.1-1.1,3.2-3.2,3.2-6.2C166.1,71.6,164.4,69.6,161.7,68.9z
			 M145.3,76.5l-9.7,6.1v-9.7L145.3,76.5z"/>
		<path class="st1" d="M127.3,144c-0.5-0.9-1-1.8-1.5-2.7l-0.1-0.2l-0.1-0.1c-1.8-1.8-4.4-2.1-7-0.7l-0.2,0.1l-0.1,0.1
			c-2.2,2.2-2.4,4.9-0.6,7.2l0.1,0.1l0.1,0.1c0.6,0.6,1,1.6,1.4,2.4c0.1,0.3,0.2,0.5,0.4,0.8c0.7,2,2.6,3.3,4.7,3.3
			c0.5,0,1.4,0,2.3-0.7c1.2-0.6,2.1-1.6,2.6-2.7c0.5-1.3,0.5-2.7-0.2-4C128.3,145.8,127.8,144.9,127.3,144z"/>
		<path class="st1" d="M111.4,131c-1.3-0.9-2.9-1.3-4.3-1.8c-0.3-0.1-0.6-0.2-0.9-0.3l-0.1,0c-2.4-0.6-5,0.5-6.4,2.6l-0.1,0.2
			l-0.1,0.2c-0.6,2.4,0.5,5,2.6,6.4l0.1,0.1l0.2,0.1c1.5,0.5,2.9,1,4.3,1.9l0.3,0.2h0.3c0.1,0,0.2,0.1,0.3,0.1
			c0.3,0.2,0.8,0.4,1.3,0.4c1.9,0,3.9-1.1,4.7-2.7c1-1.6,1.2-3.4,0.5-4.9C113.6,132.3,112.6,131.4,111.4,131z"/>
		<path class="st1" d="M108.2,170.6h-4.4c-2.7,0-4.8,2.1-4.8,4.8c0,2.6,1.9,5.3,4.8,5.3h1.5c1.6,0,3.2,0,4.9-0.6
			c2.9-0.8,4.6-3,3.9-5.6C113.5,171.9,110.8,170.1,108.2,170.6z"/>
	</g>
</g>
</svg>
