<?xml version="1.0" encoding="utf-8"?>
<!-- Generator: Adobe Illustrator 24.0.0, SVG Export Plug-In . SVG Version: 6.00 Build 0)  -->
<svg version="1.1" id="图层_1" xmlns="http://www.w3.org/2000/svg" xmlns:xlink="http://www.w3.org/1999/xlink" x="0px" y="0px"
	 viewBox="0 0 200.2 200" style="enable-background:new 0 0 200.2 200;" xml:space="preserve">
<style type="text/css">
	.st0{fill:#0BD2A9;}
</style>
<path class="st0" d="M13.3,13.3H80c7.4,0,13.3,6,13.3,13.3v66.7c0,7.4-6,13.3-13.3,13.3l0,0H13.3C6,106.7,0,100.7,0,93.3V26.7
	C0,19.3,6,13.3,13.3,13.3z M120,93.3h66.7c7.4,0,13.3,6,13.3,13.3v0v66.7c0,7.4-6,13.3-13.3,13.3h0H120c-7.4,0-13.3-6-13.3-13.3
	c0,0,0,0,0,0v-66.7C106.7,99.3,112.6,93.3,120,93.3L120,93.3z M73.3,120h13.3c3.7,0,6.7,3,6.7,6.7V140c0,3.7-3,6.7-6.7,6.7H73.3
	c-3.7,0-6.7-3-6.7-6.7v-13.3C66.7,123,69.7,120,73.3,120z M6.7,120h40c3.7,0,6.7,3,6.7,6.7V140c0,3.7-3,6.7-6.7,6.7h-40
	c-3.7,0-6.7-3-6.7-6.7v-13.3C0,123,3,120,6.7,120z M113.3,13.3h80c3.7,0,6.7,3,6.7,6.7v13.3c0,3.7-3,6.7-6.7,6.7h-80
	c-3.7,0-6.7-3-6.7-6.7V20C106.7,16.3,109.7,13.3,113.3,13.3z M6.7,160h80c3.7,0,6.7,3,6.7,6.7V180c0,3.7-3,6.7-6.7,6.7h-80
	c-3.7,0-6.7-3-6.7-6.7v-13.3C0,163,3,160,6.7,160z M113.3,53.3h53.3c3.7,0,6.7,3,6.7,6.7v13.3c0,3.7-3,6.7-6.7,6.7h-53.3
	c-3.7,0-6.7-3-6.7-6.7V60C106.7,56.3,109.7,53.3,113.3,53.3z M33.3,40H60c3.7,0,6.7,3,6.7,6.7v0v26.7c0,3.7-3,6.7-6.7,6.7h0H33.3
	c-3.7,0-6.7-3-6.7-6.7v0V46.7C26.7,43,29.7,40,33.3,40L33.3,40z M140,120h26.7c3.7,0,6.7,3,6.7,6.7v26.7c0,3.7-3,6.7-6.7,6.7H140
	c-3.7,0-6.7-3-6.7-6.7v-26.7C133.3,123,136.3,120,140,120z"/>
</svg>
