<?xml version="1.0" encoding="utf-8"?>
<!-- Generator: Adobe Illustrator 24.0.0, SVG Export Plug-In . SVG Version: 6.00 Build 0)  -->
<svg version="1.1" id="图层_1" xmlns="http://www.w3.org/2000/svg" xmlns:xlink="http://www.w3.org/1999/xlink" x="0px" y="0px"
	 viewBox="0 0 200 200" style="enable-background:new 0 0 200 200;" xml:space="preserve">
<style type="text/css">
	.st0{fill:#2970ED;}
</style>
<path class="st0" d="M196.6,180.1L165.4,149c12.1-15.6,19.3-35.3,19.3-56.6c0-51-41.4-92.4-92.4-92.4C41.4,0,0,41.4,0,92.4
	c0,51,41.4,92.4,92.4,92.4c21.3,0,41-7.2,56.6-19.4l31.1,31.2c4.5,4.5,11.9,4.6,16.4,0c0,0,0,0,0,0c2.2-2.2,3.4-5.1,3.4-8.2
	C200,185.3,198.8,182.3,196.6,180.1L196.6,180.1z M35,130.9c-18.3-27.4-14.8-64,8.6-87.3c12.9-13,30.5-20.3,48.9-20.3
	c33,0,61.4,23.3,67.9,55.6c6.5,32.4-10.8,64.8-41.3,77.4C88.5,168.9,53.3,158.3,35,130.9z"/>
<path class="st0" d="M108.6,48.5c-4.3-4.7-11.2-4.7-15.5,0c-4.2,4.8-4.2,12.4,0,17.2l23.2,25.7c4.3,4.7,11.2,4.7,15.5,0
	c4.2-4.8,4.2-12.4-0.1-17.2L108.6,48.5z"/>
</svg>
