<?xml version="1.0" encoding="utf-8"?>
<!-- Generator: Adobe Illustrator 24.0.0, SVG Export Plug-In . SVG Version: 6.00 Build 0)  -->
<svg version="1.1" id="图层_1" xmlns="http://www.w3.org/2000/svg" xmlns:xlink="http://www.w3.org/1999/xlink" x="0px" y="0px"
	 viewBox="0 0 200.2 200" style="enable-background:new 0 0 200.2 200;" xml:space="preserve">
<style type="text/css">
	.st0{fill:#FC950D;}
</style>
<path class="st0" d="M97.1,0.7c2-1,4.4-0.9,6.3,0.2c30.9,18.5,61.7,37,92.6,55.6c1.7,1.1,3.1,2.7,3.7,4.7c0.8,2.7,0.3,5.8-1.4,8
	c-1.5,1.9-3.9,3-6.2,3c-4.2,0-8.4,0-12.6,0c0,32.9,0,65.8,0,98.7c1.6,0,3.3,0,5,0c2,0,4.1-0.2,6.1,0.4c4.3,1.2,7.9,4.9,8.9,9.4
	c0.5,2,0.3,4.2,0.4,6.2c0.1,3.2-1.1,6.4-3.2,8.8c-2.3,2.7-5.8,4.3-9.3,4.3c-58.1,0-116.3,0-174.4,0c-3.2,0-6.4-1.3-8.7-3.6
	c-2.5-2.4-3.9-5.9-3.9-9.4c0-2.1-0.2-4.3,0.4-6.4c0.8-3.5,3.1-6.6,6.2-8.3c1.8-1,3.9-1.6,6-1.6c2.5,0,5,0,7.6,0
	c0-32.9,0-65.8,0-98.7c-3.9,0-7.7,0-11.6,0c-2.8,0.2-5.7-1-7.3-3.4C0,66.5-0.4,63.6,0.4,61c0.6-2,2-3.6,3.7-4.6L93.9,2.5
	C95,1.9,96,1.2,97.1,0.7 M98.8,44.1c-0.9,0.7-1.4,1.7-1.8,2.7c-2.6,5.5-5.3,10.9-7.9,16.4c-6.3,1-12.5,1.9-18.8,2.8
	c-1.7,0.2-3.3,1.5-3.9,3.2c-0.7,1.8-0.2,4,1.2,5.4c4.5,4.5,9,9,13.6,13.5c-1,6-2,12-3,17.9c-0.2,1-0.4,2-0.2,3
	c0.3,1.9,1.8,3.5,3.6,4c1.2,0.3,2.5,0.1,3.6-0.5c5.6-3,11.1-6,16.7-9c5.6,3,11.3,6.1,16.9,9.1c1.5,0.8,3.5,0.7,4.9-0.3
	c1.6-1.1,2.5-3.2,2.1-5.2c-1.1-6.4-2.1-12.7-3.2-19.1c4.5-4.5,9-9,13.5-13.5c1-1,1.6-2.4,1.6-3.8c0-1.9-1.2-3.6-2.8-4.4
	c-0.8-0.4-1.7-0.5-2.6-0.6c-5.8-0.9-11.7-1.7-17.5-2.6c-2.7-5.7-5.5-11.4-8.2-17.1c-0.4-1-1.1-1.9-2.1-2.5
	C102.6,42.6,100.3,42.8,98.8,44.1 M49.1,143c-1.8,0.5-3.2,2.1-3.3,4c-0.1,1.2-0.1,2.5,0.4,3.6c0.7,1.6,2.5,2.7,4.2,2.6
	c32.6,0,65.3,0,97.9,0c0.7,0,1.5,0,2.3-0.1c1.5-0.2,2.9-1.3,3.5-2.8c0.4-1,0.3-2.1,0.3-3.1c0-1.8-1.2-3.4-2.8-4.1
	c-1-0.4-2-0.3-3.1-0.3H51.7C50.8,142.8,49.9,142.8,49.1,143 M49.1,164.9c-1.8,0.5-3.2,2.1-3.3,4c-0.1,1.3-0.1,2.6,0.5,3.8
	c0.8,1.6,2.4,2.5,4.1,2.5c33.1,0,66.3,0,99.4,0c2.3,0.1,4.3-1.9,4.5-4.2c0-1.1,0.1-2.3-0.3-3.4c-0.7-1.8-2.5-3-4.4-2.9
	c-32.6,0-65.3,0-97.9,0C50.8,164.7,49.9,164.7,49.1,164.9L49.1,164.9z"/>
</svg>
