<?xml version="1.0" encoding="utf-8"?>
<!-- Generator: Adobe Illustrator 24.0.0, SVG Export Plug-In . SVG Version: 6.00 Build 0)  -->
<svg version="1.1" id="图层_1" xmlns="http://www.w3.org/2000/svg" xmlns:xlink="http://www.w3.org/1999/xlink" x="0px" y="0px"
	 viewBox="0 0 200.2 200" style="enable-background:new 0 0 200.2 200;" xml:space="preserve">
<style type="text/css">
	.st0{opacity:0.8;fill:#F7D8AC;}
	.st1{fill:#FC950D;}
</style>
<circle class="st0" cx="100" cy="100" r="100"/>
<path class="st1" d="M153.8,52.7c0,22.5-18.4,40.8-41,40.8c-2,0-3.9-0.2-5.8-0.4c-0.2,3.5-0.7,6.9-1.6,10.1l0.4,0.4
	c-4.5,1.5-9.3,2.3-14.3,2.3c-25.1,0-45.4-20.1-45.4-44.8c0-4.2,0.6-8.3,1.7-12.2l-0.4-0.4c4.5-1.5,9.3-2.3,14.3-2.3
	c18.5,0,34.4,11,41.5,26.6c5.8-15.5,20.9-26.6,38.7-26.6c4,0,7.9,0.6,11.6,1.6l0,0c0,0,0,0,0,0c0.1,0,0.2,0,0.3,0.1l-0.2,0.2
	C153.8,49.6,153.8,51.1,153.8,52.7z M137.5,139.4c0,8-6.4,14.4-14.4,14.4H78.5c-7.9,0-14.4-6.5-14.4-14.4v-31.2h73.4V139.4z"/>
</svg>
