<?xml version="1.0" encoding="utf-8"?>
<!-- Generator: Adobe Illustrator 24.0.0, SVG Export Plug-In . SVG Version: 6.00 Build 0)  -->
<svg version="1.1" id="图层_1" xmlns="http://www.w3.org/2000/svg" xmlns:xlink="http://www.w3.org/1999/xlink" x="0px" y="0px"
	 viewBox="0 0 200.2 200" style="enable-background:new 0 0 200.2 200;" xml:space="preserve">
<style type="text/css">
	.st0{fill:#5560DE;}
</style>
<path class="st0" d="M69.6,141.2l-26.3,26.3c-3,3-7.9,3-10.9,0c-3-3-3-7.9,0-10.9l26.3-26.3c-6.1-4.1-13.4-6.2-20.7-6.2
	c-21,0-38,17-38,37.9S17,200,38,200s38-17,38-37.9C75.9,154.7,73.7,147.4,69.6,141.2z M32.4,43.1c-3-3-3-7.9,0-10.9
	c3-3,7.9-3,10.9,0l26.1,26c11.3-17.4,6.4-40.7-11.1-52s-40.8-6.4-52.1,11s-6.4,40.7,11.1,52c12.5,8.1,28.6,8.1,41,0L32.4,43.1z
	 M162.3,124.4c-7.3,0-14.4,2.1-20.5,6.1l26.1,26c3,3,3,7.9,0,10.9c-3,3-7.9,3-10.9,0l-26.1-26.1c-4,6.1-6.1,13.2-6.1,20.5
	c0,20.7,16.9,37.6,37.6,37.6s37.6-16.9,37.6-37.6S183,124.4,162.3,124.4L162.3,124.4z M162.3,0c-20.9,0-37.8,16.9-37.7,37.8
	c0,7.3,2.1,14.4,6.1,20.5l26.1-26c3-3,7.9-3,10.9,0s3,7.9,0,10.9l0,0l-26.1,26c17.5,11.3,40.9,6.4,52.3-11.1
	c4-6.1,6.1-13.2,6.1-20.5C200,16.9,183.1,0,162.3,0L162.3,0z"/>
<path class="st0" d="M58.5,130.1c14.8-17.5,14.6-43.4-0.1-60.9C62.9,65,65,62.9,69.5,58c17.5,14.9,43.6,14.9,61.1,0
	c3.7,4,7,7.3,11.2,11.2c-14.9,17.7-14.9,43.5,0.1,61.1c-3,3.1-6.9,6.6-11.2,11.2c-17.5-14.9-43.5-15-61-0.2
	C64.9,136.4,62,133,58.5,130.1L58.5,130.1z"/>
</svg>
