<svg version="1.1" id="图层_1" xmlns="http://www.w3.org/2000/svg" x="0" y="0" viewBox="0 0 200 200" style="enable-background:new 0 0 200 200" xml:space="preserve"><style>.st0{fill:#848484}</style><path class="st0" d="M79.1 100.2c0-6 2.1-11.1 6-15 3.8-3.8 9-6 15-6s11.1 2.1 15 6c3.8 4.3 6 9 6 15 0 5.6-2.1 10.7-6 14.5-3.8 4.3-9 6-15.4 6-6 0-10.7-2.1-15-6-3.5-3.8-5.6-8.5-5.6-14.5zM0 100.2c0-6 2.1-11.1 6-15s9-6 15-6 11.1 2.1 15 6c3.8 4.3 6 9 6 15 0 5.6-2.1 10.7-6 14.5-3.8 4.3-9 6-15.4 6-6 0-10.7-2.1-15-6-3.5-3.8-5.6-8.5-5.6-14.5zM158.1 100.2c0-6 2.1-11.1 6-15 3.8-3.8 9-6 15-6s11.1 2.1 15 6c3.8 4.3 6 9 6 15 0 5.6-2.1 10.7-6 14.5-3.8 4.3-9 6-15.4 6-6 0-10.7-2.1-15-6-3.9-3.8-5.6-8.5-5.6-14.5z"/></svg>