<?xml version="1.0" encoding="utf-8"?>
<!-- Generator: Adobe Illustrator 24.0.0, SVG Export Plug-In . SVG Version: 6.00 Build 0)  -->
<svg version="1.1" id="图层_1" xmlns="http://www.w3.org/2000/svg" xmlns:xlink="http://www.w3.org/1999/xlink" x="0px" y="0px"
	 viewBox="0 0 200.2 200" style="enable-background:new 0 0 200.2 200;" xml:space="preserve">
<style type="text/css">
	.st0{fill:#5560DE;}
	.st1{fill:#FFFFFF;}
</style>
<path class="st0" d="M170.7,0H29.3C13.1,0,0,13.1,0,29.3v141.4C0,186.9,13.1,200,29.3,200h141.4c16.2,0,29.3-13.1,29.3-29.3V29.3
	C200,13.1,186.9,0,170.7,0z"/>
<path class="st1" d="M157,81.4c-6.8,2.3-13.9,3.6-21.1,3.8c-5.5-6.8-13.2-11.5-21.7-13.4c-13.9-3.6-28.5-3.6-42.4,0
	c-11.6,8.5-21.3,19.2-28.7,31.5c-6.1,9.3,8,18.2,15.9,8.5c5.6-6.9,10.7-14.1,15.5-21.5c1.1-2.5,3.9-3.9,6.6-3.4
	c0,4.9-0.9,9.8-2.8,14.3c-3.2,7.4-6.1,15-8.5,22.8c-1.5,5.4-3.9,10.5-7.1,15.2c-8-2-15.7-5-23-8.9c-5-2.1-10.8,0.2-13,5.3
	s0.2,10.8,5.3,13c1,0.4,2,0.7,3,0.7c0,0,29,16,38.9,13.9c7.9-1.7,15.5-26.1,19.2-27c6.9-0.3,13.8,1,20.2,3.8
	c0.9,1.7,9.4,30.4,9.4,30.4s0.5,8.9,12.7,5.9c12.2-2.9,8-11,8-11s-9.9-37.5-10.8-40.9c-7.9-5.1-16.9-8.3-26.3-9.3
	c2.4-7.2,7.1-17.7,8.5-21.5c2.3,0.4,10.3,12.2,16.9,10.5c6.6-1.7,30.5-6.3,30.5-6.3s11.3-2.1,8-11C168,81.7,162.1,79.3,157,81.4z
	 M114.1,57.6c7.8,0,14.1-6.3,14.1-14.1c0-7.8-6.3-14.1-14.1-14.1c-7.8,0-14.1,6.3-14.1,14.1v0C100,51.3,106.3,57.6,114.1,57.6
	C114.1,57.6,114.1,57.6,114.1,57.6z"/>
</svg>
