<?xml version="1.0" encoding="utf-8"?>
<!-- Generator: Adobe Illustrator 24.0.0, SVG Export Plug-In . SVG Version: 6.00 Build 0)  -->
<svg version="1.1" id="图层_1" xmlns="http://www.w3.org/2000/svg" xmlns:xlink="http://www.w3.org/1999/xlink" x="0px" y="0px"
	 viewBox="0 0 200.2 200" style="enable-background:new 0 0 200.2 200;" xml:space="preserve">
<style type="text/css">
	.st0{fill:#0BD2A9;}
	.st1{fill:#FFFFFF;}
</style>
<path class="st0" d="M14.2,61.9l80-60c3.4-2.6,8.1-2.6,11.5,0l80,60c2.7,2,4.2,5.2,4.3,8.7v118.7c0,5.9-4.5,10.7-10,10.7l0,0H20
	c-5.5,0-10-4.8-10-10.7l0,0V70.6C10,67.1,11.6,63.9,14.2,61.9z"/>
<path class="st1" d="M86.8,67.9H51.8c-4.8,0-8.8,3.9-8.8,8.8v35.1c0,4.8,3.9,8.8,8.8,8.8h35.1c4.8,0,8.8-3.9,8.8-8.8V76.7
	C95.6,71.9,91.7,67.9,86.8,67.9z M78.1,100.8c0,1.2-1,2.2-2.2,2.2H62.7c-1.2,0-2.2-1-2.2-2.2V87.7c0-1.2,1-2.2,2.2-2.2h13.2
	c1.2,0,2.2,1,2.2,2.2V100.8z M148.2,67.9h-35.1c-4.8,0-8.8,3.9-8.8,8.8v35.1c0,4.8,3.9,8.8,8.8,8.8h35.1c4.8,0,8.8-3.9,8.8-8.8V76.7
	C157,71.9,153.1,67.9,148.2,67.9z M139.5,100.8c0,1.2-1,2.2-2.2,2.2h-13.2c-1.2,0-2.2-1-2.2-2.2V87.7c0-1.2,1-2.2,2.2-2.2h13.2
	c1.2,0,2.2,1,2.2,2.2V100.8z M86.8,129.3H51.8c-4.8,0-8.8,3.9-8.8,8.8v35.1c0,4.8,3.9,8.8,8.8,8.8h35.1c4.8,0,8.8-3.9,8.8-8.8v-35.1
	C95.6,133.3,91.7,129.3,86.8,129.3z M78.1,162.2c0,1.2-1,2.2-2.2,2.2H62.7c-1.2,0-2.2-1-2.2-2.2V149c0-1.2,1-2.2,2.2-2.2h13.2
	c1.2,0,2.2,1,2.2,2.2V162.2z M152.6,151.1h-17.5v6.7c0,1.2-1,2.2-2.2,2.2h-6.7v17.7c0,2.4,2,4.4,4.4,4.4h22.1c2.4,0,4.4-2,4.4-4.4
	v-22.2C157,153.1,155,151.1,152.6,151.1z M126.3,133.4c0-2.4-2-4.4-4.4-4.4h-13.3c-2.4,0-4.4,2-4.4,4.4v13.4c0,2.4,2,4.4,4.4,4.4
	h13.3c2.4,0,4.4-2,4.4-4.4V133.4z M115.3,168.8h-8.8c-1.2,0-2.2,1-2.2,2.2v8.8c0,1.2,1,2.2,2.2,2.2h8.8c1.2,0,2.2-1,2.2-2.2V171
	C117.5,169.8,116.6,168.8,115.3,168.8z M154.8,129.3H146c-1.2,0-2.2,1-2.2,2.2v8.8c0,1.2,1,2.2,2.2,2.2h8.8c1.2,0,2.2-1,2.2-2.2
	v-8.8C157,130.3,156,129.3,154.8,129.3z"/>
</svg>
