<?xml version="1.0" encoding="utf-8"?>
<!-- Generator: Adobe Illustrator 24.0.0, SVG Export Plug-In . SVG Version: 6.00 Build 0)  -->
<svg version="1.1" id="图层_1" xmlns="http://www.w3.org/2000/svg" xmlns:xlink="http://www.w3.org/1999/xlink" x="0px" y="0px"
	 viewBox="0 0 200.2 200" style="enable-background:new 0 0 200.2 200;" xml:space="preserve">
<style type="text/css">
	.st0{fill:#0BD2A9;}
</style>
<path class="st0" d="M154.7,95.3c25.1,0,45.3,20.2,45.3,45.3S179.8,186,154.7,186s-45.3-20.2-45.3-45.3S129.6,95.3,154.7,95.3z
	 M77.7,15.2C81,16,81,18.4,81,29.8v140.9h8.9V44.3c0-13,1.6-15.4,4.9-16.2c2.4-0.8,4.9-0.8,6.5-0.8h0.8l44.5,23.5
	c2.4,0.8,4.9,3.2,4.9,5.7v33.2c-8.1,0.8-16.2,3.2-22.7,7.3c0,0-0.8-0.8-1.6-0.8h-13.8c-0.8,0-1.6,0.8-2.4,1.6v12.1
	c0,0.8,0.8,1.6,1.6,2.4c-5.7,8.1-8.9,17.8-8.9,27.5c0,14.6,6.5,27.5,16.2,37.2H3.2c-1.6,0-3.2-0.8-3.2-1.6v-13.8
	c0-0.8,0.8-1.6,2.4-2.4h9.7V49.2c0-2.4,1.6-4.9,3.2-6.5l0.8-0.8l51-26.7C71.3,13.6,74.5,13.6,77.7,15.2z M170.9,113.2
	c-1.6,4.9-3.2,8.9-5.7,13h-6.5l4-1.6c-1.6-4-3.2-7.3-4.9-10.5l-4.9,2.4l4.9,9.7h-6.5v20.2h5.7c-0.8,8.9-3.2,14.6-8.9,17.8l3.2,4.9
	c6.5-4.9,10.5-13,11.3-23.5h4v16.2c0,4,1.6,5.7,4.9,5.7h4.9c1.6,0,3.2-0.8,4-1.6c0.8-0.8,1.6-4.9,1.6-10.5l-4.9-1.6
	c0,4,0,6.5-0.8,7.3c0,0.8-0.8,0.8-1.6,0.8h-1.6c-0.8,0-1.6-0.8-1.6-1.6v-15.4h6.5v-20.2h-6.5c1.6-3.2,3.2-7.3,4.9-11.3H170.9z
	 M147.4,114c-5.7,1.6-12.1,3.2-19.4,3.2l0.8,5.7c2.4,0,4.9-0.8,7.3-0.8v7.3h-8.1v5.7h7.3c-1.6,5.7-4.9,11.3-8.9,16.2l2.4,6.5
	c3.2-4,4.9-8.9,7.3-13.8v24.3h5.7v-25.1c1.6,2.4,3.2,4.9,4.9,8.1l3.2-4.9c-2.4-3.2-5.7-6.5-8.1-9.7v-3.2h7.3v-5.7h-6.5v-8.1
	c2.4-0.8,4.9-0.8,7.3-1.6L147.4,114L147.4,114z M53.4,130.2h-13c-0.8,0-2.4,0.8-2.4,1.6v11.3c0,0.8,0.8,2.4,1.6,2.4h13.8
	c0.8,0,2.4-0.8,2.4-1.6v-11.3c0-0.8,0-0.8-0.8-1.6C54.3,130.2,54.3,130.2,53.4,130.2L53.4,130.2z M172.5,131v10.5h-16.2V131H172.5
	L172.5,131z M53.4,97h-13c-0.8,0-2.4,0.8-2.4,1.6v12.1c0,0.8,0.8,2.4,1.6,2.4h13.8c0.8,0,2.4-0.8,2.4-1.6V99.4c0-0.8,0-0.8-0.8-1.6
	C55.1,97,54.3,97,53.4,97z M53.4,63.8h-13c-0.8,0-2.4,0.8-2.4,1.6v12.1c0,0.8,0.8,2.4,1.6,2.4h13.8c0.8,0,2.4-0.8,2.4-1.6V66.2
	c0-0.8,0-0.8-0.8-1.6C55.1,63.8,54.3,63.8,53.4,63.8z M127.1,63.8h-13c-0.8,0-1.6,0.8-2.4,1.6v12.1c0,0.8,0.8,2.4,1.6,2.4h13.8
	c0.8,0,1.6-0.8,2.4-1.6V66.2c0-0.8,0-0.8-0.8-1.6C127.9,63.8,127.1,63.8,127.1,63.8z"/>
</svg>
