<?xml version="1.0" encoding="utf-8"?>
<!-- Generator: Adobe Illustrator 24.0.0, SVG Export Plug-In . SVG Version: 6.00 Build 0)  -->
<svg version="1.1" id="图层_1" xmlns="http://www.w3.org/2000/svg" xmlns:xlink="http://www.w3.org/1999/xlink" x="0px" y="0px"
	 viewBox="0 0 200.2 200" style="enable-background:new 0 0 200.2 200;" xml:space="preserve">
<style type="text/css">
	.st0{fill:#FC950D;}
</style>
<path class="st0" d="M192.3,44.6C196,30.7,197.6,4,173.1,0.2c-20.3-2.1-43.8,10.7-56.1,19.2c-3.7-0.5-8.5-1.1-12.8-1.1
	c-32.1-0.5-52.9,10.2-71.1,33.7c-6.4,8.5-12.3,23-14.4,39c9.1-15.5,36.9-43.8,65.7-55c0,0-44.4,31.5-65.7,76.4v0.5
	c-1.1,2.1-2.1,3.7-3.2,6.4c-21.4,52.9-3.7,75.9,12.3,79.6c15,3.7,35.8-3.2,52.4-21.4c28.3,6.4,56.6-1.1,66.8-6.4
	c19.8-10.7,33.7-30.5,36.9-50.2h-54c0,0-2.7,17.1-31.5,17.1c-26.7,0-28.3-31-28.3-31h115.4c0,0,2.1-33.7-14.4-56.1
	c-9.6-12.3-21.9-23.5-39-29.4c5.3-3.7,14.4-10.2,22.4-11.8c15-3.7,24.6-1.6,31,9.6c8.5,15-4.8,49.2-4.8,49.2S188,59,192.3,44.6z
	 M72.6,176c-23,18.7-41.7,16.6-49.2,5.3c-6.4-10.2-7.5-27.3,0-51.3c3.7,9.1,9.1,18.2,17.1,26.2C50.2,165.9,61.4,172.3,72.6,176z
	 M71.5,79.3c0,0,1.1-22.4,25.1-24c21.4-2.1,32.1,7.5,35.3,25.1L71.5,79.3z"/>
</svg>
