<?xml version="1.0" encoding="utf-8"?>
<!-- Generator: Adobe Illustrator 24.0.0, SVG Export Plug-In . SVG Version: 6.00 Build 0)  -->
<svg version="1.1" id="图层_1" xmlns="http://www.w3.org/2000/svg" xmlns:xlink="http://www.w3.org/1999/xlink" x="0px" y="0px"
	 viewBox="0 0 200.2 200" style="enable-background:new 0 0 200.2 200;" xml:space="preserve">
<style type="text/css">
	.st0{fill:#5560de;}
</style>
<path class="st0" d="M68.2,94.3c15.6,9,34.9,9,50.5,0c15.6-9,25.3-25.7,25.3-43.7c0-18.1-9.6-34.8-25.2-43.8c-15.7-9-34.9-9-50.6,0
	c-15.7,9-25.3,25.8-25.2,43.8C42.9,68.6,52.6,85.3,68.2,94.3L68.2,94.3z M199.1,137.6c0-5.2-4.2-9.3-9.3-9.3H174c0,0,0,0,0,0l0-14.8
	c0-4.7-3.2-9.1-7.8-9.9c-6-1.1-11.3,3.5-11.3,9.4v15.3c0,0,0,0,0,0h-6c0,0,0,0,0,0l0-14.9c0-4.7-3.1-9-7.7-9.8
	c-6-1.1-11.2,3.5-11.2,9.3v15.4c0,0,0,0,0,0l-15.3,0c-4.6,0-8.9,3.1-9.7,7.6c-1,5.9,3.5,11,9.2,11h15.8c0,0,0,0,0,0v9.4c0,0,0,0,0,0
	l-15.4,0c-4.6,0-8.8,3.1-9.6,7.6c-1,5.9,3.4,10.9,9.1,10.9h15.9c0,0,0,0,0,0l0,15.2c0,4.1,2.5,8.1,6.4,9.3c6.5,2,12.4-2.8,12.4-9
	v-15.7c0,0,0,0,0,0h5.9c0,0,0,0,0,0l0,15c0,4.7,3.2,9.1,7.8,9.9c6.1,1.1,11.3-3.6,11.3-9.4v-15.5c0,0,0,0,0,0l15.4,0
	c4.6,0,8.8-3.1,9.6-7.6c1-5.9-3.4-10.9-9.1-10.9H174c0,0,0,0,0,0v-9.4c0,0,0,0,0,0l15.8,0.1C194.9,147,199.1,142.8,199.1,137.6
	L199.1,137.6L199.1,137.6z M154.8,156.5h-6c0,0,0,0,0,0V147c0,0,0,0,0,0h5.9c0,0,0,0,0,0L154.8,156.5
	C154.9,156.4,154.9,156.5,154.8,156.5z M113.6,181h-6.1c-5,0-9-4.1-9-9v-40.9c0-5,4.1-9,9-9h9.8c3,0,5.8-2,6.2-5c0.6-4.2-2-8-6-8.9
	c-10.3-2.4-18.3-3.7-24.1-3.7c-43.7,0-80.5,29.9-91.2,70.6c-3.2,12.3,6.3,24.4,19,24.4l91.8,0c4.5,0,8.7-3.1,9.5-7.5
	C123.7,186.1,119.2,181,113.6,181z"/>
</svg>
