<?xml version="1.0" encoding="utf-8"?>
<!-- Generator: Adobe Illustrator 24.0.0, SVG Export Plug-In . SVG Version: 6.00 Build 0)  -->
<svg version="1.1" id="图层_1" xmlns="http://www.w3.org/2000/svg" xmlns:xlink="http://www.w3.org/1999/xlink" x="0px" y="0px"
	 viewBox="0 0 200.2 200" style="enable-background:new 0 0 200.2 200;" xml:space="preserve">
<style type="text/css">
	.st0{fill:#FC950D;}
</style>
<path class="st0" d="M40.6,59.4c0,22.4,18.2,40.6,40.6,40.6s40.6-18.2,40.6-40.6s-18.2-40.6-40.6-40.6S40.6,36.9,40.6,59.4z"/>
<path class="st0" d="M94.2,101l-12.9,12.9L68.4,101C29,107.4,0,141.4,0,181.3h89.8c1.9,0,3.7-1.1,4.6-2.8c0,0,0,0,0,0l27.4-52.6
	c3.4-6.6,0.8-14.8-5.9-18C109.1,104.5,101.7,102.2,94.2,101L94.2,101z M81.3,169.7l-13.9-13.9L81.3,114l13.9,41.8L81.3,169.7z
	 M198.9,168.9l-34.4-66.1c-3.3-5.8-10.7-7.7-16.5-4.4c-1.8,1.1-3.3,2.6-4.4,4.4l-9,17.3l-25.5,48.9c-2.3,3.9-0.9,9,3,11.3
	c1.3,0.7,2.7,1.1,4.1,1.1h75.5c4.6,0,8.3-3.7,8.3-8.2C200,171.6,199.6,170.1,198.9,168.9z M159.2,165.1c-1.3,2.9-4.7,4.1-7.6,2.8
	c-1.3-0.6-2.3-1.6-2.8-2.9c-0.3-0.7-0.5-1.5-0.4-2.3c0.1-2.4,1.7-4.5,4.1-5.2c0.5-0.1,1-0.2,1.5-0.2c0.6,0,1.2,0.1,1.8,0.2
	c2.4,0.7,4.1,3,4.1,5.5C159.7,163.7,159.5,164.5,159.2,165.1L159.2,165.1z M162.7,131.9l-3.8,19.4c-0.1,0.8-0.7,1.5-1.5,1.7
	c-0.2,0-0.3,0-0.5,0H151c-1,0-1.9-0.7-2-1.7l-3.8-19.4c0-0.2,0-0.5,0-0.7c0-1.5,0.8-2.8,2-3.6c0.6-0.4,1.3-0.5,2-0.5h9.4
	c0.7,0,1.4,0.2,2,0.5C162.2,128.4,163,130.2,162.7,131.9L162.7,131.9z"/>
<path class="st0" d="M153.9,157.2c-0.5,0-1,0.1-1.5,0.2h3.3C155.1,157.3,154.5,157.2,153.9,157.2z"/>
</svg>
