<?xml version="1.0" encoding="utf-8"?>
<!-- Generator: Adobe Illustrator 24.0.0, SVG Export Plug-In . SVG Version: 6.00 Build 0)  -->
<svg version="1.1" id="图层_1" xmlns="http://www.w3.org/2000/svg" xmlns:xlink="http://www.w3.org/1999/xlink" x="0px" y="0px"
	 viewBox="0 0 200 200" style="enable-background:new 0 0 200 200;" xml:space="preserve">
<style type="text/css">
	.st0{fill:#1C90FF;}
</style>
<path class="st0" d="M100,0C44.8,0,0,44.8,0,100c0,55.2,44.8,100,100,100s100-44.8,100-100C200,44.8,155.2,0,100,0L100,0z
	 M153.9,74.4l-67.6,67.6c-1.3,1.3-3.6,1.2-5.2-0.3l-4.5-4.5c0,0,0,0,0,0l-30.3-30.3c-1.5-1.5-1.5-4,0-5.5l8.3-8.3
	c1.5-1.5,4-1.5,5.5,0l23.8,23.8l56.3-56.3c1.3-1.3,3.6-1.2,5.2,0.3l8.3,8.3C155.1,70.8,155.3,73.1,153.9,74.4L153.9,74.4z"/>
</svg>
