<?xml version="1.0" encoding="utf-8"?>
<!-- Generator: Adobe Illustrator 24.0.0, SVG Export Plug-In . SVG Version: 6.00 Build 0)  -->
<svg version="1.1" id="图层_1" xmlns="http://www.w3.org/2000/svg" xmlns:xlink="http://www.w3.org/1999/xlink" x="0px" y="0px"
	 viewBox="0 0 200.2 200" style="enable-background:new 0 0 200.2 200;" xml:space="preserve">
<style type="text/css">
	.st0{fill-rule:evenodd;clip-rule:evenodd;fill:#3773FE;}
</style>
<g>
	<g>
		<path class="st0" d="M17.4,191.3C7.8,191.3,0,183.5,0,174V83.2c0-1.3,0.6-2.6,1.7-3.4L15,70.3c1.1-0.8,1.7-2,1.7-3.4V23.3
			c0-8.1,6.6-14.6,14.7-14.6h138.4c7.5,0,13.6,6.1,13.6,13.5v44.7c0,1.3,0.6,2.6,1.7,3.4l13.2,9.6c1.1,0.8,1.7,2,1.7,3.4v89.1
			c0,10.5-8.5,19-19,19H17.4z M33.3,104.4V36.2c0-6,4.9-10.9,10.9-10.9H154c7,0,12.6,5.6,12.6,12.6v64.3c0,1.4-0.7,2.7-1.8,3.4
			l-62.5,42.6c-1.4,1-3.3,1-4.7,0L33.3,104.4L33.3,104.4z M150,100H54.2c-2.3,0-4.2-1.9-4.2-4.1v0c0-2.3,1.9-4.1,4.2-4.1h91.7
			c2.3,0,4.2,1.9,4.2,4.1V100L150,100z M150,75.1v4.1c0,2.3-1.9,4.1-4.2,4.1H54.2c-2.3,0-4.2-1.9-4.2-4.1v0c0-2.3,1.9-4.1,4.2-4.1
			H150L150,75.1z M91.7,66.8H54.2c-2.3,0-4.2-1.9-4.2-4.1V46.1c0-2.3,1.9-4.1,4.2-4.1h33.3c2.3,0,4.2,1.9,4.2,4.1V66.8L91.7,66.8z
			 M150,66.8h-45.8c-2.3,0-4.2-1.9-4.2-4.1v0c0-2.3,1.9-4.1,4.2-4.1h41.7c2.3,0,4.2,1.9,4.2,4.1V66.8L150,66.8z M150,50.2h-45.8
			c-2.3,0-4.2-1.9-4.2-4.1v0c0-2.3,1.9-4.1,4.2-4.1h41.7c2.3,0,4.2,1.9,4.2,4.1V50.2L150,50.2z"/>
	</g>
</g>
</svg>
