<?xml version="1.0" encoding="utf-8"?>
<!-- Generator: Adobe Illustrator 24.0.0, SVG Export Plug-In . SVG Version: 6.00 Build 0)  -->
<svg version="1.1" id="图层_1" xmlns="http://www.w3.org/2000/svg" xmlns:xlink="http://www.w3.org/1999/xlink" x="0px" y="0px"
	 viewBox="0 0 200.2 200" style="enable-background:new 0 0 200.2 200;" xml:space="preserve">
<style type="text/css">
	.st0{fill:#3773FE;}
</style>
<path class="st0" d="M36.9,77.9C38,59.9,47.7,48,66.4,48c19.3,0,27.8,13.7,28.7,29.9c4.9,0,5.2,6.7,4.6,11.8
	c-0.6,4.8-4.3,10.7-7.9,12.5c-10.8,34.4-41,34.5-51.9,0c-3.6-2-7.2-7.8-7.8-12.5C31.7,84.5,32,77.8,36.9,77.9L36.9,77.9z"/>
<path class="st0" d="M136.6,200H0v-35.7c0-16.9,12.3-31.6,29.4-35.2l12.6-2.6l26.2,52.3l26.2-52.3l12.6,2.6
	c17.2,3.6,29.4,18.2,29.4,35.2L136.6,200L136.6,200z M149.8,0c-27.7,0-50.2,19.4-50.2,43.2c0,13.3,7,25.2,17.9,33.1l5.6,17.1
	c0.4,1.4,1.5,2.6,2.9,3.2c1.4,0.5,2.9,0.5,4.2-0.2l19.4-9.9c27.7,0,50.2-19.4,50.2-43.3C200,19.3,177.5,0,149.8,0L149.8,0z
	 M141.1,64.3c0-9,13.3-9.4,13.5,0C154.5,73.4,141.1,73.4,141.1,64.3z M153.1,53.8h-10c-0.2-5.2,0-8.5,4.3-13.8
	c11.1-13.2-2.3-14.5-8.6-10.1l-2.6-8.3c8.9-5.2,27-4.8,27,8.7C163.3,41.8,153.1,40.7,153.1,53.8L153.1,53.8z"/>
</svg>
