<?xml version="1.0" encoding="utf-8"?>
<!-- Generator: Adobe Illustrator 24.0.0, SVG Export Plug-In . SVG Version: 6.00 Build 0)  -->
<svg version="1.1" id="图层_1" xmlns="http://www.w3.org/2000/svg" xmlns:xlink="http://www.w3.org/1999/xlink" x="0px" y="0px"
	 viewBox="0 0 200.2 200" style="enable-background:new 0 0 200.2 200;" xml:space="preserve">
<style type="text/css">
	.st0{fill:#3773FE;}
</style>
<path class="st0" d="M187.4,156.1c-0.9-3.1-0.5-6.3,0.9-9.2c8.3-15.6,12.3-33.2,11.5-50.9c-2-53.2-46.4-96-99.8-96
	C44.7,0,0,44.8,0,100.1c0,53.4,42.8,97.7,96,99.8c18.5,0.8,35.8-3.5,50.9-11.5c2.8-1.5,6.1-1.8,9.2-0.9l22.6,6.5
	c9.2,2.6,17.8-6,15.2-15.2L187.4,156.1L187.4,156.1z M75.2,166.2c-0.6,0.3-1.3,0.5-2,0.5c-0.7,0-1.4-0.1-2-0.5
	C52.5,154.6,20,130.6,20,105.8C20,85,35.2,73.3,50.2,73.3c7.4,0,14.9,3,20.7,8.9c1.3,1.2,3.4,1.2,4.7,0c5.4-5.7,12.9-8.9,20.7-8.9
	c15.2,0,30.2,11.6,30.2,32.5C126.5,130.5,94,154.7,75.2,166.2z M147.4,86.5h-0.3c-3.6,0.9-7.1-1.1-8.7-4.8c-2-4.8-5-9.1-8.7-12.3
	c-3-2.5-3.9-6.9-2.3-10.7l0.2-0.4c2-5,7.6-6.6,11.5-3.4c6,5.2,10.7,11.8,13.7,19.2C154.6,79.2,152.1,85.2,147.4,86.5L147.4,86.5z
	 M168,79.8h-0.3c-3.5,0.9-6.9-1.1-8.1-4.5c-4.2-11.8-12.3-21.9-23-28.7c-3.1-1.8-4.2-5.7-2.7-8.9l0.1-0.3c1.7-3.7,6.3-5.3,9.7-3
	c13.6,8.4,23.8,21.3,29.1,36.3C174.3,74.6,171.9,78.8,168,79.8L168,79.8z"/>
</svg>
