<?xml version="1.0" encoding="utf-8"?>
<!-- Generator: Adobe Illustrator 24.0.0, SVG Export Plug-In . SVG Version: 6.00 Build 0)  -->
<svg version="1.1" id="图层_1" xmlns="http://www.w3.org/2000/svg" xmlns:xlink="http://www.w3.org/1999/xlink" x="0px" y="0px"
	 viewBox="0 0 200.2 200" style="enable-background:new 0 0 200.2 200;" xml:space="preserve">
<style type="text/css">
	.st0{fill:#3773FE;}
</style>
<path class="st0" d="M100.4,0h-0.9C79.5,24.3,35,19.7,18.8,19.3v83.9c0,69.1,81.2,96.8,81.2,96.8s81.2-26.9,81.2-96.8V19.3
	C158.1,19.9,120.5,24.3,100.4,0L100.4,0z M87.8,42.5c3.2-3.3,7.7-5.1,12.3-5c4.6-0.1,9,1.8,12.3,5c6.7,6.8,6.7,17.7-0.1,24.5
	c-6.8,6.7-17.7,6.7-24.5-0.1C81.1,60.2,81.1,49.3,87.8,42.5L87.8,42.5z M142.4,67.5l-22.6,22.6v63.8c-0.1,4.8-4.1,8.6-8.9,8.4
	c-4.6-0.1-8.3-3.8-8.4-8.4v-29.7h-4.9v29.7c0.2,4.8-3.6,8.8-8.3,9c-4.8,0.2-8.8-3.6-9-8.3c0-0.2,0-0.4,0-0.6V90.1L57.6,67.5
	c-2.9-2.9-2.9-7.6,0-10.5c1.4-1.4,3.3-2.2,5.3-2.2c2,0,3.8,0.8,5.2,2.2l17.6,17.6h28.5L131.9,57c2.9-2.9,7.6-2.9,10.5,0
	c1.4,1.4,2.2,3.3,2.2,5.3C144.6,64.2,143.8,66.1,142.4,67.5L142.4,67.5z"/>
</svg>
