<?xml version="1.0" encoding="utf-8"?>
<!-- Generator: Adobe Illustrator 24.0.0, SVG Export Plug-In . SVG Version: 6.00 Build 0)  -->
<svg version="1.1" id="图层_1" xmlns="http://www.w3.org/2000/svg" xmlns:xlink="http://www.w3.org/1999/xlink" x="0px" y="0px"
	 viewBox="0 0 200.2 200" style="enable-background:new 0 0 200.2 200;" xml:space="preserve">
<style type="text/css">
	.st0{fill:#0BD2A9;}
	.st1{fill:#FFFFFF;}
</style>
<path class="st0" d="M115.9,200L115.9,200l-0.1-171.7l0-1.5c-0.2-3.4-1-6.8-2.5-10C106.8,2.5,89.7-3.9,75.1,2.4L22.5,25.3l-1.1,0.5
	c-9.8,4.8-16,14.6-16,25.3v120.6l0,1.1C5.9,187.9,18.6,200,34.2,200L115.9,200C115.9,200,115.9,200,115.9,200z"/>
<path class="st1" d="M76.3,142.1H44.7l-0.8,0c-4-0.4-7.1-3.8-7.1-7.9c0-4.4,3.5-7.9,7.9-7.9h31.6c4.4,0,7.9,3.5,7.9,7.9
	C84.2,138.6,80.7,142.1,76.3,142.1z"/>
<path class="st1" d="M76.3,100H44.7l-0.8,0c-4-0.4-7.1-3.8-7.1-7.9c0-4.4,3.5-7.9,7.9-7.9h31.6c4.4,0,7.9,3.5,7.9,7.9
	C84.2,96.5,80.7,100,76.3,100z"/>
<path class="st0" d="M194.7,112.3c-0.5-10.3-6.6-19.5-15.9-24l-0.6-0.3L126.3,60v140l39.8,0l1.2,0c14.8-0.6,26.8-12.3,27.4-27l0-1.1
	v-58.3L194.7,112.3z"/>
<path class="st1" d="M165.8,142.1h-23.7v-15.8h23.7c4.4,0,7.9,3.5,7.9,7.9C173.7,138.6,170.1,142.1,165.8,142.1z"/>
</svg>
