<?xml version="1.0" encoding="utf-8"?>
<!-- Generator: Adobe Illustrator 24.0.0, SVG Export Plug-In . SVG Version: 6.00 Build 0)  -->
<svg version="1.1" id="图层_1" xmlns="http://www.w3.org/2000/svg" xmlns:xlink="http://www.w3.org/1999/xlink" x="0px" y="0px"
	 viewBox="0 0 200.2 200" style="enable-background:new 0 0 200.2 200;" xml:space="preserve">
<style type="text/css">
	.st0{fill:#0BD2A9;}
</style>
<path class="st0" d="M162.7,199.9c-6.7,2.9-17.5-39.2-24.2-68.4c-2.9-12.5-5.4-22.5-6.2-25.5l2.1-0.8c6.2,15.4,10.4,32.1,14.6,48.4
	c4.6,16.3,9.2,25.5,14.2,40.5C163.5,195.7,164.7,199,162.7,199.9L162.7,199.9z M142.3,166.9c5-2.9-2.9-23.4-10.4-25.9
	c-15.8-5-29.6-7.1-39.1-21.3l2.1,6.3c3.7,12.1,12.9,30,25,35.9C123.9,164,137.3,169.8,142.3,166.9z M128.9,133.1
	c15,0,4.6-15-2.9-22.1c-3.7-3.8-10-5-15-6.7C101,101,89.4,97.2,85.6,93L83.5,91c0.8,5.8,2.1,10.4,5,15.9c3.3,6.3,9.6,15,20.8,20.4
	C117.3,131.4,124.3,133.1,128.9,133.1L128.9,133.1z"/>
<path class="st0" d="M119.3,103.9c-5.4,0-11.2-1.7-17.1-5C94,94.3,88.1,86.8,84.8,81.8c-3.7-5.8-5.4-10.4-5.4-10.4l-0.8-2.5l2.5,1.3
	c5,2.9,11.2,3.8,17.5,5c6.2,0.8,12.9,2.1,19.2,5c9.6,4.2,12.9,11.7,13.7,14.6c0.8,2.5,0.8,4.6,0.4,5.8
	C130.2,103.1,121.8,103.9,119.3,103.9L119.3,103.9z M137.3,97.2c6.7-2.5,10.4-14.6,12.1-20.9c2.9-12.5-0.4-23.4-3.7-30.5
	c-3.7-7.5-7.9-11.7-7.9-12.1l-2.1-1.3v2.9c1.7,17.9-6.7,20.4-9.2,35.9C125.2,80.9,128.1,92.2,137.3,97.2L137.3,97.2z M158.9,123.9
	c-2.1,3.8-6.2,7.9-10.8,6.3c-15.4-22.1,4.6-39.2,5.8-63.4C163.9,82.6,168.1,106.8,158.9,123.9z"/>
<path class="st0" d="M152.7,160.2c0,0-2.1-3.3-3.3-7.9c-1.7-6.7-0.8-13.4,3.3-19.2c9.2-13.4,15.8-17.5,21.7-34.2
	c3.3,12.9,5.8,33-0.8,45.1c-3.3,6.3-12.5,15.9-19.6,16.7h-0.4L152.7,160.2L152.7,160.2z M132.3,48.8c-1.7,0.8-2.9-0.8-3.8-2.1
	c-5-10-19.6-30.5-20.4-31.3l-6.7-9.2l8.3,7.5c7.1,6.3,12.9,15,16.2,20C126.8,35.5,135.2,47.6,132.3,48.8L132.3,48.8z M108.9,69.7
	h0.8c1.3-0.8,0.8-3.3,0.4-5.4c-0.8-3.8-6.7-13.4-14.6-24.2C89,31.3,80.2,20.4,74.4,16.7L64.8,10l7.9,8.3c0,0,19.2,20,32.5,49.2
	C106.4,68.8,107.7,69.7,108.9,69.7L108.9,69.7z M120.6,68.8h0.8c0.4,0,0.8-0.8,0.8-1.3c0.4-2.5-4.2-12.1-7.1-17.5
	c-3.7-7.1-9.2-16.3-13.3-21.3C92.7,17.9,80.6,3.8,76,0.4L75.6,0L74,1.7l0.4,0.4c0,0,22.9,23.8,41.2,62.2
	C116.4,65.1,118.1,68.8,120.6,68.8L120.6,68.8z M127.3,61.3c2.5,0,2.5-3.3,2.5-5c-0.4-6.7-25.4-39.6-35.8-51.7l-0.4-0.4l-1.7,1.3
	l0.4,0.4c0.4,0.4,27.9,38,32.5,53.4C125.2,60.5,126,61.3,127.3,61.3L127.3,61.3z M99.8,69.7h0.8c0.4,0,0.8-0.4,0.8-1.3
	c0-1.7-3.3-8.3-7.1-14.2c-2.9-4.6-9.2-13.8-16.2-20l-8.3-7.5l6.7,9.2c0.4,0.8,15.4,20.9,20.4,31.3C97.3,68,98.1,69.7,99.8,69.7z
	 M106.9,165.2c-0.4-0.8-1.3-1.7-1.7-2.9c-1.3-1.7-2.1-3.8-2.9-5.8c-1.7-3.8-3.3-7.9-6.7-11.3c-0.8-0.8-2.1-1.7-3.3-2.5l-5-2.5
	c-0.4,1.7-2.1,12.5-6.2,22.5C76,174,69,184.4,67.7,186.1c-0.4,0.4-0.8,1.3-1.3,1.7h2.1c1.7,0,3.7,0,5.8-0.4c10-0.4,17.9-1.7,25-4.2
	c3.3-1.3,5.8-2.9,7.5-5c0.4-0.8,1.3-2.1,1.7-2.9C109.4,171.5,108.1,167.7,106.9,165.2L106.9,165.2z M99.4,162.7
	c0.8-0.4,3.3,3.3,3.3,5c0,0-0.4,0.8-1.2,1.3C100.6,169,98.9,163.1,99.4,162.7z M84.4,108.5c-0.4-3.3-2.1-6.3-4.6-7.9
	c0,0-0.4-0.4-0.8-0.4c-3.7-2.1-8.3-1.3-13.3,0c-1.7,0.4-3.7,0.4-5.8,0.4c-3.7,0-8.7,0-13.3,2.5c-15,8.8-23.7,42.1-24.1,63v2.9
	c0,11.3,2.5,19.2,7.5,23.4c0.8,0.8,1.7,1.3,2.5,1.7h0.4c1.7,0.8,3.7,1.3,5.8,1.3c1.7,0,3.7-0.4,6.2-1.3c1.3-0.4,2.5-1.3,3.7-2.1
	c1.7-1.3,3.3-2.5,5-4.2l1.3-1.3c2.9-2.9,5.8-6.3,8.7-11.3c0.4-0.4,0.8-1.3,0.8-1.7c4.2-7.1,7.5-15,10.4-22.9l0.4-1.3
	c1.3-3.3,2.5-7.1,3.7-11.3l0.4-0.8l0.4-0.8l0.4-1.3C82.7,127.3,85.6,117.2,84.4,108.5L84.4,108.5z M35.2,143.1
	c-0.4,0-1.3-0.4-1.3-0.8c0-0.4,0-1.3,0.4-1.7s0.8-0.4,1.7-0.4c0.4,0,0.8,0.8,0.8,1.3C36.9,142.7,36.1,143.1,35.2,143.1L35.2,143.1z
	 M36.9,136.4c-3.3-2.1,5-19.6,10.8-23.4c0,0,4.6-1.3,7.1,1.7C57.7,118.1,39.8,138.1,36.9,136.4z"/>
</svg>
