<?xml version="1.0" encoding="utf-8"?>
<!-- Generator: Adobe Illustrator 24.0.0, SVG Export Plug-In . SVG Version: 6.00 Build 0)  -->
<svg version="1.1" id="图层_1" xmlns="http://www.w3.org/2000/svg" xmlns:xlink="http://www.w3.org/1999/xlink" x="0px" y="0px"
	 viewBox="0 0 200.2 200" style="enable-background:new 0 0 200.2 200;" xml:space="preserve">
<style type="text/css">
	.st0{fill:#0BD2A9;}
</style>
<path class="st0" d="M87.5,0c16.3,0,28.5,13.1,34.4,19.7C128.1,12.6,140,0,156.3,0c22.8,0,41.4,18.2,41.4,40.7
	c0,7.7-2.4,15.3-6.7,21.9c-15.9,28.6-57.2,57-65.3,62.4l-0.3,0.2c-1.1,0.8-2.5,1.2-3.8,1.2c-1.2,0-2.5-0.5-3.9-1.2
	C117.2,125,69.6,94,52.5,62.6c-4.3-6.5-6.6-14.1-6.5-21.9C46.1,18.2,64.7,0,87.5,0z M198.3,142.3c-0.1,0.3-0.3,0.6-0.5,0.8
	c0,0.2-0.2,0.2-0.2,0.2l-1.2,1.5c-22.6,28.2-31,40.2-34,45c-2.5,4.2-9.7,10.1-16.4,10.1H87.5c-2.7,0-5.4-0.7-7.7-2h-0.2l-0.3-0.2
	c-5.6-3.5-23.5-13.8-30.9-16.2c-3.7-1-20.8-1.9-34.6-1.9c-7.6,0-13.7-6.1-13.7-13.5v-31.4c0-7.4,6.2-13.6,13.7-13.6
	c5.9,0,10.9-1.5,16.1-3l0.7-0.2c6-1.9,11.4-3.4,17.8-3.4c22.1,0,31,6.4,42.3,14.3l0.7,0.5c4.4,3.2,8.7,6.2,13.4,8.9
	c4.7,2.8,25.2,5.2,37.9,5.9c1.3,0,2.5,0.2,3.5,0.5l1,2c0,0,1.9,12.3-23.8,10.6s-40.6-8.7-47.3-13c-6.7-4.2-17.4,6.9-6.7,13.1
	c10.8,6.2,58.6,26.9,78.3,11.8c18.9-14.6,19.6-26.6,13.7-34.1c-0.2-0.2-0.5-0.5-0.7-0.5c2.2-2,4.5-4.2,6.5-6.4
	c2.5-2.7,8.5-8.6,16.3-8.6c2.5,0,5.2,0.7,7.9,2.2C199.1,126.2,201.9,135.2,198.3,142.3L198.3,142.3z"/>
</svg>
