<?xml version="1.0" encoding="utf-8"?>
<!-- Generator: Adobe Illustrator 24.0.0, SVG Export Plug-In . SVG Version: 6.00 Build 0)  -->
<svg version="1.1" id="图层_1" xmlns="http://www.w3.org/2000/svg" xmlns:xlink="http://www.w3.org/1999/xlink" x="0px" y="0px"
	 viewBox="0 0 200.2 200" style="enable-background:new 0 0 200.2 200;" xml:space="preserve">
<style type="text/css">
	.st0{fill:#0BD2A9;}
</style>
<path class="st0" d="M0.2,99.3c0-11.9,4.4-22.5,13.1-31.9c1.9-1.9,3.8-4.4,5-6.3c11.9-15,25.7-28.2,40-40.7
	c4.4-3.8,8.1-7.5,12.5-10.6c6.3-5,13.8-8.1,22.5-9.4c15-1.9,28.2,2.5,39.4,13.1c4.4,3.8,8.8,7.5,13.8,11.3
	c14.4,12.5,27.5,25.7,38.8,40.7c1.9,2.5,4.4,5,6.3,8.1c6.9,10,9.4,21.9,7.5,33.8c-1.3,10-5.6,18.1-12.5,25.7l-11.3,13.1
	c-8.1,9.4-16.3,18.1-25.7,26.3c-5,4.4-10,8.1-15,12.5c-3.1,2.5-5.6,5-8.8,6.9c-10.6,6.9-21.9,9.4-34.4,7.5
	c-10-1.3-18.1-5.6-25.7-12.5c-1.9-1.9-3.8-3.1-6.3-5c-12.5-10-24.4-21.3-35-33.8c-3.8-5-8.1-9.4-11.9-14.4c-0.6-1.9-3.1-5-5-8.1
	C2.7,118.1,0.2,109.3,0.2,99.3z M83.4,117.4v39.4c0,4.4,2.5,6.9,6.9,6.9h20c1.3,0,2.5-0.6,3.1-1.3c2.5-2.5,3.8-5.6,3.8-9.4v-34.4
	c0-1.3,0-1.3,1.3-1.3h39.4c3.1,0,5.6-2.5,6.3-5.6V91.1c0-1.3-0.6-2.5-1.3-3.8c-1.3-1.9-3.8-2.5-6.3-2.5h-39.4v-1.3V45.5
	c0-5-2.5-7.5-7.5-7.5H90.9c-1.3,0-2.5,0-3.8,0.6c-2.5,1.3-3.8,3.8-3.8,6.3v39.4H44c-4.4,0-6.9,2.5-6.9,6.9v19.4
	c0,1.9,0.6,3.1,1.3,4.4c1.3,1.9,3.8,2.5,6.3,2.5H83.4z"/>
</svg>
