<?xml version="1.0" encoding="utf-8"?>
<!-- Generator: Adobe Illustrator 24.0.0, SVG Export Plug-In . SVG Version: 6.00 Build 0)  -->
<svg version="1.1" id="图层_1" xmlns="http://www.w3.org/2000/svg" xmlns:xlink="http://www.w3.org/1999/xlink" x="0px" y="0px"
	 viewBox="0 0 200.2 200" style="enable-background:new 0 0 200.2 200;" xml:space="preserve">
<style type="text/css">
	.st0{fill:#0BD2A9;}
</style>
<path class="st0" d="M170.4,6.4c0-3.6-2.9-6.4-6.4-6.4h-34.3c-3.6,0-6.4,2.9-6.4,6.4v14.6h47.5V6.4L170.4,6.4z M171.1,33.2h-54.3
	c-3.9,0-7.5,1.1-10.7,3.6l-78.2,60c-5,3.6-8.6,11.4-8.6,18.6v66.4c0,10,8.2,18.2,18.2,18.2h125c10,0,18.2-8.2,18.2-18.2V42.9
	C180.4,37.9,176.4,33.2,171.1,33.2z M115.4,80.7l-56.1,42.9c-2.1,1.4-3.9,2.5-6.1,2.5c-2.9,0-6.1-1.4-8.2-3.9
	c-3.6-4.6-2.5-11.1,2.1-14.6l56.1-42.9c4.6-3.6,11.1-2.5,14.6,2.1C121.1,71.1,120,77.5,115.4,80.7z M142.1,148.6
	c-8.6,0-15.7-7.1-15.7-15.7c0-6.4,2.9-15.7,15.7-41.8c12.1,26.8,15.7,35.4,15.7,41.8C157.9,141.4,150.7,148.6,142.1,148.6z"/>
</svg>
