<?xml version="1.0" encoding="utf-8"?>
<!-- Generator: Adobe Illustrator 24.0.0, SVG Export Plug-In . SVG Version: 6.00 Build 0)  -->
<svg version="1.1" id="图层_1" xmlns="http://www.w3.org/2000/svg" xmlns:xlink="http://www.w3.org/1999/xlink" x="0px" y="0px"
	 viewBox="0 0 200.2 200" style="enable-background:new 0 0 200.2 200;" xml:space="preserve">
<style type="text/css">
	.st0{fill:#0BD2A9;}
</style>
<path class="st0" d="M103.1,7.2c-1.8-0.5-4.8-0.5-6.7,0L68.3,15c-1.8,0.5-1.8,1.3,0,1.8l94,25.5c1.8,0.5,3.3,2.5,3.3,4.4v46
	c0,1.9-1.4,4-3.2,4.7l-14.7,5.7c-1.8,0.7-3.2-0.3-3.2-2.2V55.1c0-1.9-1.5-3.8-3.3-4.3L42.1,24.2c-1.8-0.5-4.8-0.5-6.7,0L3.3,33.1
	C1.5,33.6,0,35.6,0,37.5v118.7c0,1.9,1.5,3.9,3.3,4.5l100,32c1.8,0.6,4.7,0.5,6.5-0.1l87-31.8c1.8-0.7,3.2-2.7,3.2-4.6l0-118.7
	c0-1.9-1.5-3.9-3.3-4.4L103.1,7.2L103.1,7.2z"/>
</svg>
