<?xml version="1.0" encoding="utf-8"?>
<!-- Generator: Adobe Illustrator 24.0.0, SVG Export Plug-In . SVG Version: 6.00 Build 0)  -->
<svg version="1.1" id="图层_1" xmlns="http://www.w3.org/2000/svg" xmlns:xlink="http://www.w3.org/1999/xlink" x="0px" y="0px"
	 viewBox="0 0 200.2 200" style="enable-background:new 0 0 200.2 200;" xml:space="preserve">
<style type="text/css">
	.st0{fill:#0BD2A9;}
</style>
<path class="st0" d="M177.6,16.1h-46.8V7.9c0-4.3-3.5-7.9-7.9-7.9H77c-4.3,0-7.9,3.5-7.9,7.9v8.2H22.4c-8.9,0-16.1,7.2-16.1,16.1
	v11.5c0,2.6,2.1,4.8,4.8,4.8h178c2.6,0,4.8-2.1,4.8-4.8v0V32.2C193.8,23.3,186.5,16.1,177.6,16.1L177.6,16.1z M20.8,59.2L32,175.8
	c1.3,13.7,12.9,24.2,26.6,24.2h82.7c13.8,0,25.4-10.5,26.7-24.2l11.1-116.6L20.8,59.2z M90.4,123.8l-6.7,7.6l-10,11.4
	c-1.2,1.3-3.2,1.5-4.5,0.3c-0.1-0.1-0.2-0.2-0.3-0.3l-6.8-7.7l-9.9-11.3c-1.8-2.1-0.3-5.2,2.4-5.2h6.6c3-22.3,22-38.9,44.5-38.9
	c0.1,0,0.2,0,0.4,0c-14.1,7.4-23.8,22-24.1,38.9H88c1.7,0,3.2,1.4,3.2,3.2C91.1,122.4,90.9,123.2,90.4,123.8z M145.3,121.7h-6.6
	c-3,22.3-22,38.9-44.5,38.9c-0.1,0-0.2,0-0.4,0c14.1-7.4,23.7-22,24.1-38.9H112c-1.7,0-3.2-1.4-3.2-3.2c0-0.8,0.3-1.5,0.8-2.1
	l6.7-7.6l10-11.4c1.2-1.3,3.2-1.5,4.5-0.3c0.1,0.1,0.2,0.2,0.3,0.3l6.8,7.7l9.9,11.3c1.2,1.3,1,3.3-0.3,4.5
	C146.8,121.4,146.1,121.7,145.3,121.7L145.3,121.7z"/>
</svg>
