<?xml version="1.0" standalone="no"?><!DOCTYPE svg PUBLIC "-//W3C//DTD SVG 1.1//EN" "http://www.w3.org/Graphics/SVG/1.1/DTD/svg11.dtd"><svg t="1622641460123" class="icon" viewBox="0 0 1024 1024" version="1.1" xmlns="http://www.w3.org/2000/svg" p-id="3142" xmlns:xlink="http://www.w3.org/1999/xlink" width="200" height="200"><defs><style type="text/css"></style></defs><path d="M273.384949 532.748556l145.238872 0c11.469216 0 20.74958-9.299807 20.74958-20.74958 0-11.469216-9.280364-20.74958-20.74958-20.74958L273.384949 491.249397c-11.458983 0-20.74958 9.280364-20.74958 20.74958C252.635369 523.44875 261.925966 532.748556 273.384949 532.748556zM273.384949 428.999634l207.488635 0c11.469216 0 20.74958-9.299807 20.74958-20.748556 0-11.469216-9.280364-20.74958-20.74958-20.74958L273.384949 387.501498c-11.458983 0-20.74958 9.280364-20.74958 20.74958C252.635369 419.698804 261.925966 428.999634 273.384949 428.999634zM750.64268 615.748922 273.384949 615.748922c-11.458983 0-20.74958 9.280364-20.74958 20.74958 0 11.449773 9.29162 20.74958 20.74958 20.74958l477.257731 0c11.44875 0 20.730137-9.299807 20.730137-20.74958C771.372817 625.029286 762.090407 615.748922 750.64268 615.748922zM812.871977 221.500766 211.135186 221.500766c-45.825698 0-83.008552 37.163411-83.008552 82.999342l0 414.997736c0 45.834908 37.182854 82.999342 83.008552 82.999342l601.73679 0c45.856397 0 82.999342-37.164435 82.999342-82.999342L895.871319 304.501132C895.872343 258.664178 858.728374 221.500766 812.871977 221.500766zM833.62258 719.498868c0 11.44875-9.281387 20.74958-20.74958 20.74958L211.135186 740.248448c-11.458983 0-20.74958-9.301853-20.74958-20.74958L190.385607 304.501132c0-11.469216 9.29162-20.74958 20.74958-20.74958l601.73679 0c11.468193 0 20.74958 9.280364 20.74958 20.74958L833.621557 719.498868zM706.14114 457.134415c14.446014-11.401678 23.731494-29.05678 23.731494-48.88436 0-34.387181-27.863604-62.249763-62.229297-62.249763-34.387181 0-62.271252 27.862581-62.271252 62.249763 0 19.828604 9.293667 37.485753 23.75196 48.886407-38.234813 15.291265-65.252143 52.667523-65.252143 96.361675l207.498868 0C771.372817 509.801938 744.364697 472.423633 706.14114 457.134415z" p-id="3143" fill="#1c90ff"></path></svg>